<?xml version="1.0" encoding="UTF-8" standalone="no"?>
<!-- Created with Inkscape (http://www.inkscape.org/) -->

<svg
   xmlns:dc="http://purl.org/dc/elements/1.1/"
   xmlns:cc="http://creativecommons.org/ns#"
   xmlns:rdf="http://www.w3.org/1999/02/22-rdf-syntax-ns#"
   xmlns:svg="http://www.w3.org/2000/svg"
   xmlns="http://www.w3.org/2000/svg"
   xmlns:sodipodi="http://sodipodi.sourceforge.net/DTD/sodipodi-0.dtd"
   xmlns:inkscape="http://www.inkscape.org/namespaces/inkscape"
   width="1135.2539"
   height="219.26418"
   id="svg4239"
   version="1.1"
   inkscape:version="0.48.4 r9939"
   sodipodi:docname="New document 9">
  <defs
     id="defs4241" />
  <sodipodi:namedview
     id="base"
     pagecolor="#ffffff"
     bordercolor="#666666"
     borderopacity="1.0"
     inkscape:pageopacity="0.0"
     inkscape:pageshadow="2"
     inkscape:zoom="0.35"
     inkscape:cx="794.05555"
     inkscape:cy="-184.65363"
     inkscape:document-units="px"
     inkscape:current-layer="layer1"
     showgrid="false"
     fit-margin-top="0"
     fit-margin-left="0"
     fit-margin-right="0"
     fit-margin-bottom="0"
     inkscape:window-width="1920"
     inkscape:window-height="1029"
     inkscape:window-x="0"
     inkscape:window-y="0"
     inkscape:window-maximized="1" />
  <metadata
     id="metadata4244">
    <rdf:RDF>
      <cc:Work
         rdf:about="">
        <dc:format>image/svg+xml</dc:format>
        <dc:type
           rdf:resource="http://purl.org/dc/dcmitype/StillImage" />
        <dc:title></dc:title>
      </cc:Work>
    </rdf:RDF>
  </metadata>
  <g
     inkscape:label="Layer 1"
     inkscape:groupmode="layer"
     id="layer1"
     transform="translate(419.05555,-128.44438)">
    <g
       transform="translate(-473.59461,92.785516)"
       style="font-size:200px;font-style:normal;font-variant:normal;font-weight:normal;font-stretch:normal;line-height:125%;letter-spacing:0px;word-spacing:0px;fill:#ffffff;fill-opacity:1;stroke:none;font-family:Cure- Curiosity;-inkscape-font-specification:Cure- Curiosity"
       id="flowRoot3001">
      <path
         inkscape:connector-curvature="0"
         d="m 61.667969,163.61444 12.5,3.51563 c 3.58068,10.74222 7.747342,17.31773 12.5,19.72656 l 21.386721,3.51563 14.35547,-10.74219 0,-7.12891 -3.61328,-5.37109 c -32.161521,-4.75256 -48.242234,-8.30073 -48.242193,-10.64453 -7.096389,-5.98953 -11.848988,-14.32285 -14.257812,-25 1.171846,-23.82803 14.876259,-37.532439 41.113281,-41.113283 10.677004,3.580844 23.176994,4.78527 37.500004,3.613282 l 8.88671,14.257811 c 2.40874,14.2579 0.0324,23.17716 -7.1289,26.75781 l -10.74219,-1.75781 c -8.33342,-21.41917 -22.62377,-26.17177 -42.871093,-14.25781 -1.171928,8.33341 2.994735,14.87638 12.5,19.6289 1.236911,-2.40878 7.812423,-2.40878 19.726563,0 l 3.51563,3.51563 c 16.66655,1.23704 26.79024,10.18886 30.37109,26.85547 -2.40897,33.33334 -19.07562,47.62369 -50.000001,42.87109 -13.085995,-3.58073 -26.17192,-4.78515 -39.257813,-3.61328 l -5.371094,-7.12891 0,-30.37109 7.128907,-7.12891"
         style="fill:#ffffff"
         id="path3008" />
      <path
         inkscape:connector-curvature="0"
         d="m 223.28906,70.059757 c 14.25775,-4.752461 21.38665,2.994927 21.38672,23.242188 l 42.87109,0 5.3711,5.371094 c 2.40873,14.257911 -7.12902,20.800871 -28.61328,19.628901 l -19.62891,-1.75781 c 1.23691,3.51572 -0.55345,5.27353 -5.37109,5.27344 2.40879,15.49486 2.40879,33.95188 0,55.37109 3.58066,-1.17184 5.37102,0.61852 5.37109,5.3711 26.23688,1.1719 41.11317,2e-5 44.62891,-3.51563 l 12.5,7.12891 c -1.3e-4,13.08595 -14.87642,21.41927 -44.62891,25 -11.91413,1.17187 -23.79563,-0.61849 -35.64453,-5.3711 -10.74222,-13.08592 -14.90889,-21.41924 -12.5,-25 l 3.51562,-57.1289 -14.25781,-10.74219 c -2.40887,-11.91395 2.92966,-18.456916 16.01563,-19.628905 -2.34379,-7.161336 0.651,-14.908725 8.98437,-23.242188"
         style="fill:#ffffff"
         id="path3010" />
      <path
         inkscape:connector-curvature="0"
         d="m 365.67187,171.03632 c -1.17191,9.44013 0.5859,14.77867 5.27344,16.01562 21.22389,1.1719 33.62622,-2.96221 37.20703,-12.40234 2.34366,-5.92444 -0.0326,-10.64449 -7.1289,-14.16016 l -24.70703,3.51563 -10.64454,7.03125 M 349.75391,121.5246 c -3e-5,-8.26813 2.34372,-13.57412 7.03125,-15.91797 l 5.37109,0 c 8.20308,-8.268116 19.40098,-12.402226 33.59375,-12.402341 20.05199,1.15e-4 33.04026,5.306099 38.96484,15.917971 l 0,70.80078 c 2.34364,3.51565 7.06369,5.27346 14.16016,5.27344 l 5.27344,5.37109 c 2.34361,9.44011 -5.33867,15.91797 -23.04688,19.43359 l -14.16015,0 -7.03125,-5.27343 -17.67579,5.27343 c -15.36463,2.34375 -28.3529,1.75781 -38.96484,-1.75781 -8.26825,-4.68749 -14.16017,-12.36978 -17.67578,-23.04687 -2.40887,-11.78382 0.52082,-21.22392 8.78906,-28.32032 3.58071,-5.85931 24.25126,-12.33717 62.01172,-19.43359 5.85929,-8.26815 1.72518,-15.33195 -12.40234,-21.19141 l -12.40235,3.51563 -8.88672,15.91797 c -12.95576,4.68757 -20.60549,-0.0325 -22.94921,-14.16016"
         style="fill:#ffffff"
         id="path3012" />
      <path
         inkscape:connector-curvature="0"
         d="m 518.01562,90.860539 c 9.50515,-2.408735 16.66661,2.929802 21.48438,16.015621 l 19.62891,-16.015621 c 21.41915,-5.98946 35.09102,-1.822798 41.01562,12.500001 2.40872,4.7527 -0.55352,11.29567 -8.88672,19.6289 -4.75272,1.17196 -13.67198,-0.6184 -26.75781,-5.37109 l -17.87109,7.12891 -8.98438,10.74218 0,44.62891 c 8.33326,3.58075 19.66137,5.37112 33.98438,5.37109 l 7.1289,7.12891 c -1.1e-4,8.33334 -5.3712,13.70443 -16.11328,16.11328 l -62.5,0 -7.12891,-8.98437 c -2e-5,-7.16145 2.37628,-11.91404 7.12891,-14.25782 5.98955,2.34378 10.15621,-0.0325 12.5,-7.1289 l -1.75781,-64.35547 -23.24219,0 c -5.92449,-9.5051 -4.72007,-16.048067 3.61328,-19.628906 17.8385,1.237091 26.75776,0.06522 26.75781,-3.515625"
         style="fill:#ffffff"
         id="path3014" />
      <path
         inkscape:connector-curvature="0"
         d="m 680.71094,43.985539 c 8.13794,-1.106606 13.96476,0.09782 17.48047,3.613281 l 3.41796,20.996094 -1.75781,105.468746 3.51563,10.54688 31.34765,5.27344 c 3.51551,11.71875 -0.58605,18.19661 -12.30468,19.43359 l -69.62891,0 -8.69141,-7.12891 c 1.23695,-15.23435 9.99345,-21.09372 26.26953,-17.57812 2.27859,-17.57809 2.27859,-55.07805 0,-112.500001 -19.7917,3.515757 -30.27346,1.790498 -31.44531,-5.175782 -2.27867,-4.752458 0.0651,-9.439953 7.03125,-14.0625 l 8.69141,0 26.07422,-8.886718"
         style="fill:#ffffff"
         id="path3016" />
      <path
         inkscape:connector-curvature="0"
         d="m 824.94922,35.88007 c 14.77857,-1.171702 24.02335,2.311368 27.73437,10.449219 1.17179,17.317852 -5.59904,27.701957 -20.3125,31.152343 -12.30474,1.106901 -19.69406,-2.376169 -22.16797,-10.449218 -4.88285,-12.695159 0.0325,-23.079263 14.7461,-31.152344 m -33.10547,149.21875 1.85547,1.66016 16.5039,-1.66016 3.71094,-53.90625 0,-5.17578 -3.71094,-5.17578 -25.78125,-1.75782 -5.46875,-5.17578 c -2.47397,-10.41656 3.02733,-16.178271 16.50391,-17.285153 l 42.48047,0 7.32422,10.351563 c -4.88289,40.49485 -4.88289,66.53649 0,78.125 l 31.34765,1.66016 c 11.06759,5.79428 12.30456,13.31381 3.71094,22.55859 l -49.80469,1.75781 -46.09375,-1.75781 -5.46875,-6.93359 c 1.17186,-10.41665 5.46873,-16.17837 12.89063,-17.28516"
         style="fill:#ffffff"
         id="path3018" />
      <path
         inkscape:connector-curvature="0"
         d="m 936.17969,97.501164 c 5.92444,-1.171764 13.63928,0.618599 23.14453,5.371096 l 17.87109,-7.128909 c 20.24731,-4.752487 35.74209,1.13e-4 46.48439,14.257809 l 5.3711,14.35547 0,58.88672 14.2578,5.37109 3.5156,7.12891 -1.7578,8.88672 -8.8867,3.61328 -41.11329,-1.75781 -3.51563,-7.12891 3.51563,-10.74219 3.61328,-1.75781 1.75781,-28.61328 c 5.9244,-4.75255 4.134,-17.25254 -5.37109,-37.5 l -26.75782,0 -8.98437,8.88672 0,46.48437 5.37109,10.74219 c 11.914,1.1719 17.28508,5.9245 16.11328,14.25781 l -1.75781,5.3711 -12.5,3.51562 -35.74219,0 -7.1289,-7.1289 0,-8.88672 10.64453,-12.5 c -2.34378,-14.32288 -2.34378,-30.98953 0,-50 -3.51565,-5.9895 -10.05861,-10.15616 -19.62891,-12.5 l 1.85547,-12.5 19.62891,-8.984376"
         style="fill:#ffffff"
         id="path3020" />
      <path
         inkscape:connector-curvature="0"
         d="m 1102.6836,133.24335 c -1.237,14.25787 2.9947,22.49354 12.6953,24.70703 13.2812,2.21359 22.3632,-2.70177 27.2461,-14.74609 l -1.8555,-14.84375 -12.5976,-6.54297 c -14.5834,-1.10668 -23.0795,2.70191 -25.4883,11.42578 m -7.3242,78.80859 c -1.1068,9.89582 5.5663,16.50389 20.0195,19.82422 l 30.8594,-1.66015 16.3086,-9.76563 c 2.4087,-1.17188 -0.5861,-5.59896 -8.9844,-13.28125 l -52.7344,0 c 1.237,3.25521 -0.586,4.88281 -5.4687,4.88281 m 20.0195,-113.281245 16.3086,0 30.8594,11.523435 21.7773,3.32031 3.711,6.54297 c 1.1717,9.89592 -4.9155,14.84383 -18.2618,14.84375 1.2369,25.13026 -12.0769,39.35551 -39.9414,42.67578 -7.1615,-2.2135 -12.5651,-2.2135 -16.2109,0 l 1.7578,4.88282 c 45.9634,-6.57549 70.7681,2.7344 74.4141,27.92968 -2e-4,16.40624 -7.2593,27.89711 -21.7774,34.47266 l -9.1797,4.98047 c -16.862,1.04162 -26.53,2.70178 -29.0039,4.98047 -18.099,-5e-5 -33.7891,-2.73442 -47.0703,-8.20313 -9.7005,-8.78909 -14.5508,-15.39715 -14.5508,-19.82422 -2.3437,-10.9375 0.098,-19.14062 7.3243,-24.60937 l 5.3711,-8.30078 c -2.4089,-4.29686 0.651,-13.05336 9.1796,-26.26953 l -7.3242,-4.78516 c -9.7005,-17.57806 -10.319,-32.35669 -1.8554,-44.33594 10.8723,-13.21604 22.3632,-19.824106 34.4726,-19.824215"
         style="fill:#ffffff"
         id="path3022" />
    </g>
  </g>
</svg>
