<?xml version="1.0" encoding="UTF-8" standalone="no"?>
<!-- Created with Inkscape (http://www.inkscape.org/) -->

<svg
   xmlns:dc="http://purl.org/dc/elements/1.1/"
   xmlns:cc="http://creativecommons.org/ns#"
   xmlns:rdf="http://www.w3.org/1999/02/22-rdf-syntax-ns#"
   xmlns:svg="http://www.w3.org/2000/svg"
   xmlns="http://www.w3.org/2000/svg"
   xmlns:sodipodi="http://sodipodi.sourceforge.net/DTD/sodipodi-0.dtd"
   xmlns:inkscape="http://www.inkscape.org/namespaces/inkscape"
   width="1430"
   height="230"
   id="svg2"
   inkscape:label="Pozadí"
   version="1.1"
   inkscape:version="0.48.4 r9939"
   sodipodi:docname="starling_white.svg">
  <defs
     id="defs3" />
  <sodipodi:namedview
     id="base"
     pagecolor="#ffffff"
     bordercolor="#666666"
     borderopacity="1.0"
     inkscape:pageopacity="0.0"
     inkscape:pageshadow="2"
     inkscape:zoom="0.53897095"
     inkscape:cx="1121.4506"
     inkscape:cy="339.07361"
     inkscape:document-units="px"
     inkscape:current-layer="layer1"
     showgrid="false"
     inkscape:window-width="1920"
     inkscape:window-height="1029"
     inkscape:window-x="0"
     inkscape:window-y="0"
     inkscape:window-maximized="1" />
  <metadata
     id="metadata6">
    <rdf:RDF>
      <cc:Work
         rdf:about="">
        <dc:format>image/svg+xml</dc:format>
        <dc:type
           rdf:resource="http://purl.org/dc/dcmitype/StillImage" />
        <dc:title />
      </cc:Work>
    </rdf:RDF>
  </metadata>
  <g
     inkscape:label="Vrstva 1"
     inkscape:groupmode="layer"
     id="layer1"
     transform="translate(0,-822.36215)"
     style="display:inline">
    <flowRoot
       xml:space="preserve"
       id="flowRoot2984"
       style="font-size:144px;font-style:normal;font-variant:normal;font-weight:bold;font-stretch:normal;text-align:center;line-height:125%;letter-spacing:0px;word-spacing:0px;text-anchor:middle;fill:#000000;fill-opacity:1;stroke:none;font-family:Cure- Curiosity;-inkscape-font-specification:Cure- Curiosity Bold"
       transform="translate(-64.285714,809.50502)"><flowRegion
         id="flowRegion2986"><rect
           id="rect2988"
           width="901.42859"
           height="177.14285"
           x="30.714285"
           y="24.285713"
           style="font-size:144px;font-style:normal;font-variant:normal;font-weight:bold;font-stretch:normal;text-align:center;text-anchor:middle;font-family:Cure- Curiosity;-inkscape-font-specification:Cure- Curiosity Bold" /></flowRegion><flowPara
         id="flowPara2990"
         style="font-size:144px;font-style:normal;font-variant:normal;font-weight:bold;font-stretch:normal;text-align:center;text-anchor:middle;font-family:Cure- Curiosity;-inkscape-font-specification:Cure- Curiosity Bold" /></flowRoot>    <flowRoot
       xml:space="preserve"
       id="flowRoot2993"
       style="font-size:40px;font-style:normal;font-weight:normal;line-height:125%;letter-spacing:0px;word-spacing:0px;fill:#000000;fill-opacity:1;stroke:none;font-family:Sans"><flowRegion
         id="flowRegion2995"><rect
           id="rect2997"
           width="1048.5714"
           height="675.71429"
           x="-188.57143"
           y="-207.14285" /></flowRegion><flowPara
         id="flowPara2999" /></flowRoot>    <g
       transform="translate(-53.878206,795.07468)"
       style="font-size:200px;font-style:normal;font-variant:normal;font-weight:normal;font-stretch:normal;line-height:125%;letter-spacing:0px;word-spacing:0px;fill:#ffffff;fill-opacity:1;stroke:none;font-family:Cure- Curiosity;-inkscape-font-specification:Cure- Curiosity"
       id="flowRoot3001">
      <path
         d="m 61.667969,163.61444 12.5,3.51563 c 3.58068,10.74222 7.747342,17.31773 12.5,19.72656 l 21.386721,3.51563 14.35547,-10.74219 0,-7.12891 -3.61328,-5.37109 c -32.161521,-4.75256 -48.242234,-8.30073 -48.242193,-10.64453 -7.096389,-5.98953 -11.848988,-14.32285 -14.257812,-25 1.171846,-23.82803 14.876259,-37.532439 41.113281,-41.113283 10.677004,3.580844 23.176994,4.78527 37.500004,3.613282 l 8.88671,14.257811 c 2.40874,14.2579 0.0324,23.17716 -7.1289,26.75781 l -10.74219,-1.75781 c -8.33342,-21.41917 -22.62377,-26.17177 -42.871093,-14.25781 -1.171928,8.33341 2.994735,14.87638 12.5,19.6289 1.236911,-2.40878 7.812423,-2.40878 19.726563,0 l 3.51563,3.51563 c 16.66655,1.23704 26.79024,10.18886 30.37109,26.85547 -2.40897,33.33334 -19.07562,47.62369 -50.000001,42.87109 -13.085995,-3.58073 -26.17192,-4.78515 -39.257813,-3.61328 l -5.371094,-7.12891 0,-30.37109 7.128907,-7.12891"
         style="fill:#ffffff"
         id="path3008"
         inkscape:connector-curvature="0" />
      <path
         d="m 223.28906,70.059757 c 14.25775,-4.752461 21.38665,2.994927 21.38672,23.242188 l 42.87109,0 5.3711,5.371094 c 2.40873,14.257911 -7.12902,20.800871 -28.61328,19.628901 l -19.62891,-1.75781 c 1.23691,3.51572 -0.55345,5.27353 -5.37109,5.27344 2.40879,15.49486 2.40879,33.95188 0,55.37109 3.58066,-1.17184 5.37102,0.61852 5.37109,5.3711 26.23688,1.1719 41.11317,2e-5 44.62891,-3.51563 l 12.5,7.12891 c -1.3e-4,13.08595 -14.87642,21.41927 -44.62891,25 -11.91413,1.17187 -23.79563,-0.61849 -35.64453,-5.3711 -10.74222,-13.08592 -14.90889,-21.41924 -12.5,-25 l 3.51562,-57.1289 -14.25781,-10.74219 c -2.40887,-11.91395 2.92966,-18.456916 16.01563,-19.628905 -2.34379,-7.161336 0.651,-14.908725 8.98437,-23.242188"
         style="fill:#ffffff"
         id="path3010"
         inkscape:connector-curvature="0" />
      <path
         d="m 365.67187,171.03632 c -1.17191,9.44013 0.5859,14.77867 5.27344,16.01562 21.22389,1.1719 33.62622,-2.96221 37.20703,-12.40234 2.34366,-5.92444 -0.0326,-10.64449 -7.1289,-14.16016 l -24.70703,3.51563 -10.64454,7.03125 M 349.75391,121.5246 c -3e-5,-8.26813 2.34372,-13.57412 7.03125,-15.91797 l 5.37109,0 c 8.20308,-8.268116 19.40098,-12.402226 33.59375,-12.402341 20.05199,1.15e-4 33.04026,5.306099 38.96484,15.917971 l 0,70.80078 c 2.34364,3.51565 7.06369,5.27346 14.16016,5.27344 l 5.27344,5.37109 c 2.34361,9.44011 -5.33867,15.91797 -23.04688,19.43359 l -14.16015,0 -7.03125,-5.27343 -17.67579,5.27343 c -15.36463,2.34375 -28.3529,1.75781 -38.96484,-1.75781 -8.26825,-4.68749 -14.16017,-12.36978 -17.67578,-23.04687 -2.40887,-11.78382 0.52082,-21.22392 8.78906,-28.32032 3.58071,-5.85931 24.25126,-12.33717 62.01172,-19.43359 5.85929,-8.26815 1.72518,-15.33195 -12.40234,-21.19141 l -12.40235,3.51563 -8.88672,15.91797 c -12.95576,4.68757 -20.60549,-0.0325 -22.94921,-14.16016"
         style="fill:#ffffff"
         id="path3012"
         inkscape:connector-curvature="0" />
      <path
         d="m 518.01562,90.860539 c 9.50515,-2.408735 16.66661,2.929802 21.48438,16.015621 l 19.62891,-16.015621 c 21.41915,-5.98946 35.09102,-1.822798 41.01562,12.500001 2.40872,4.7527 -0.55352,11.29567 -8.88672,19.6289 -4.75272,1.17196 -13.67198,-0.6184 -26.75781,-5.37109 l -17.87109,7.12891 -8.98438,10.74218 0,44.62891 c 8.33326,3.58075 19.66137,5.37112 33.98438,5.37109 l 7.1289,7.12891 c -1.1e-4,8.33334 -5.3712,13.70443 -16.11328,16.11328 l -62.5,0 -7.12891,-8.98437 c -2e-5,-7.16145 2.37628,-11.91404 7.12891,-14.25782 5.98955,2.34378 10.15621,-0.0325 12.5,-7.1289 l -1.75781,-64.35547 -23.24219,0 c -5.92449,-9.5051 -4.72007,-16.048067 3.61328,-19.628906 17.8385,1.237091 26.75776,0.06522 26.75781,-3.515625"
         style="fill:#ffffff"
         id="path3014"
         inkscape:connector-curvature="0" />
      <path
         d="m 680.71094,43.985539 c 8.13794,-1.106606 13.96476,0.09782 17.48047,3.613281 l 3.41796,20.996094 -1.75781,105.468746 3.51563,10.54688 31.34765,5.27344 c 3.51551,11.71875 -0.58605,18.19661 -12.30468,19.43359 l -69.62891,0 -8.69141,-7.12891 c 1.23695,-15.23435 9.99345,-21.09372 26.26953,-17.57812 2.27859,-17.57809 2.27859,-55.07805 0,-112.500001 -19.7917,3.515757 -30.27346,1.790498 -31.44531,-5.175782 -2.27867,-4.752458 0.0651,-9.439953 7.03125,-14.0625 l 8.69141,0 26.07422,-8.886718"
         style="fill:#ffffff"
         id="path3016"
         inkscape:connector-curvature="0" />
      <path
         d="m 824.94922,35.88007 c 14.77857,-1.171702 24.02335,2.311368 27.73437,10.449219 1.17179,17.317852 -5.59904,27.701957 -20.3125,31.152343 -12.30474,1.106901 -19.69406,-2.376169 -22.16797,-10.449218 -4.88285,-12.695159 0.0325,-23.079263 14.7461,-31.152344 m -33.10547,149.21875 1.85547,1.66016 16.5039,-1.66016 3.71094,-53.90625 0,-5.17578 -3.71094,-5.17578 -25.78125,-1.75782 -5.46875,-5.17578 c -2.47397,-10.41656 3.02733,-16.178271 16.50391,-17.285153 l 42.48047,0 7.32422,10.351563 c -4.88289,40.49485 -4.88289,66.53649 0,78.125 l 31.34765,1.66016 c 11.06759,5.79428 12.30456,13.31381 3.71094,22.55859 l -49.80469,1.75781 -46.09375,-1.75781 -5.46875,-6.93359 c 1.17186,-10.41665 5.46873,-16.17837 12.89063,-17.28516"
         style="fill:#ffffff"
         id="path3018"
         inkscape:connector-curvature="0" />
      <path
         d="m 936.17969,97.501164 c 5.92444,-1.171764 13.63928,0.618599 23.14453,5.371096 l 17.87109,-7.128909 c 20.24731,-4.752487 35.74209,1.13e-4 46.48439,14.257809 l 5.3711,14.35547 0,58.88672 14.2578,5.37109 3.5156,7.12891 -1.7578,8.88672 -8.8867,3.61328 -41.11329,-1.75781 -3.51563,-7.12891 3.51563,-10.74219 3.61328,-1.75781 1.75781,-28.61328 c 5.9244,-4.75255 4.134,-17.25254 -5.37109,-37.5 l -26.75782,0 -8.98437,8.88672 0,46.48437 5.37109,10.74219 c 11.914,1.1719 17.28508,5.9245 16.11328,14.25781 l -1.75781,5.3711 -12.5,3.51562 -35.74219,0 -7.1289,-7.1289 0,-8.88672 10.64453,-12.5 c -2.34378,-14.32288 -2.34378,-30.98953 0,-50 -3.51565,-5.9895 -10.05861,-10.15616 -19.62891,-12.5 l 1.85547,-12.5 19.62891,-8.984376"
         style="fill:#ffffff"
         id="path3020"
         inkscape:connector-curvature="0" />
      <path
         d="m 1102.6836,133.24335 c -1.237,14.25787 2.9947,22.49354 12.6953,24.70703 13.2812,2.21359 22.3632,-2.70177 27.2461,-14.74609 l -1.8555,-14.84375 -12.5976,-6.54297 c -14.5834,-1.10668 -23.0795,2.70191 -25.4883,11.42578 m -7.3242,78.80859 c -1.1068,9.89582 5.5663,16.50389 20.0195,19.82422 l 30.8594,-1.66015 16.3086,-9.76563 c 2.4087,-1.17188 -0.5861,-5.59896 -8.9844,-13.28125 l -52.7344,0 c 1.237,3.25521 -0.586,4.88281 -5.4687,4.88281 m 20.0195,-113.281245 16.3086,0 30.8594,11.523435 21.7773,3.32031 3.711,6.54297 c 1.1717,9.89592 -4.9155,14.84383 -18.2618,14.84375 1.2369,25.13026 -12.0769,39.35551 -39.9414,42.67578 -7.1615,-2.2135 -12.5651,-2.2135 -16.2109,0 l 1.7578,4.88282 c 45.9634,-6.57549 70.7681,2.7344 74.4141,27.92968 -2e-4,16.40624 -7.2593,27.89711 -21.7774,34.47266 l -9.1797,4.98047 c -16.862,1.04162 -26.53,2.70178 -29.0039,4.98047 -18.099,-5e-5 -33.7891,-2.73442 -47.0703,-8.20313 -9.7005,-8.78909 -14.5508,-15.39715 -14.5508,-19.82422 -2.3437,-10.9375 0.098,-19.14062 7.3243,-24.60937 l 5.3711,-8.30078 c -2.4089,-4.29686 0.651,-13.05336 9.1796,-26.26953 l -7.3242,-4.78516 c -9.7005,-17.57806 -10.319,-32.35669 -1.8554,-44.33594 10.8723,-13.21604 22.3632,-19.824106 34.4726,-19.824215"
         style="fill:#ffffff"
         id="path3022"
         inkscape:connector-curvature="0" />
    </g>
    <path
       style="fill:#ffffff"
       d="m 1236.6031,825.77518 c -0.558,0.0123 -1.1261,0.0581 -1.6665,0.15383 -0.3951,0.108 -0.7975,-0.0791 -1.1921,-0.0254 -0.1735,0.0242 -0.3302,0.13677 -0.5,0.17947 -0.5268,0.13241 -1.0901,0.10862 -1.628,0.10255 -0.995,0.25482 -1.995,0.51534 -3.0124,0.71786 -0.8487,0.45611 -1.9332,0.33518 -2.7177,0.85889 -1.0097,0.2935 -2.0026,0.58299 -2.974,0.98704 -0.3797,0.37472 -0.944,0.26024 -1.3844,0.48712 -0.1449,0.0752 -0.2111,0.25121 -0.3589,0.32049 -0.3238,0.1519 -0.6962,0.16531 -1.0384,0.26918 -0.4676,0.55915 -1.2185,0.68635 -1.8074,1.03835 -0.5566,0.44836 -0.2793,0.27336 -0.8204,0.57684 -0.3478,0.15251 -0.4675,0.19846 -0.5513,0.23073 0.1542,-0.0436 0.3328,-0.041 -0.205,0.38457 -0.1453,0.11527 -0.3569,0.0927 -0.5128,0.1923 -0.4381,0.28092 -0.8708,0.77374 -1.282,1.10244 -0.8163,0.67138 -1.5928,1.42899 -2.2305,2.28176 l -0.4998,0.37173 c -0.055,0.15305 -0.056,0.34269 -0.1667,0.46149 -0.1337,0.14369 -0.3608,0.15764 -0.5127,0.28201 -0.2361,0.19342 -0.5761,0.76779 -0.7692,1.03836 -0.097,0.13447 -0.1976,0.27578 -0.2949,0.4102 -0.1006,0.0728 -0.2217,0.11781 -0.2947,0.2179 -0.1008,0.13784 -0.1031,0.33781 -0.2051,0.47432 -0.073,0.0983 -0.2006,0.12696 -0.2949,0.20511 -0.2719,0.22536 -0.3651,0.34908 -0.5768,0.60247 -0.267,0.33346 -0.6256,0.61043 -0.8846,0.9486 -0.1152,0.15046 -0.1739,0.34129 -0.2948,0.48712 -0.1928,0.23226 -0.4804,0.38826 -0.705,0.58967 -0.092,0.19731 -0.1117,0.25687 -0.1282,0.29486 0.012,-0.0667 -0.028,-0.12315 -0.3845,0.34609 -0.071,0.0946 -0.049,0.22171 -0.1155,0.32049 -0.2162,0.32943 -0.6274,0.60838 -0.8844,0.91013 -0.1023,0.16072 -0.1312,0.2064 -0.1539,0.24358 0.03,-0.0718 0.017,-0.12483 -0.3845,0.34609 -0.073,0.0849 -0.075,0.21474 -0.1539,0.29485 -0.1116,0.11404 -0.2956,0.14603 -0.3974,0.26917 -0.3577,0.43273 -0.1691,0.37912 -0.051,0.32051 -0.062,0.0352 -0.1656,0.0972 -0.4486,0.28201 -0.027,0.48146 -0.4724,0.55788 -0.7564,0.83321 -0.1128,0.10919 -0.1646,0.28071 -0.2819,0.38456 -0.2052,0.18189 -0.2834,0.19502 -0.3077,0.17947 -0.014,0.0242 -0.058,0.0655 -0.1282,0.19231 -0.1067,0.0922 -0.2326,0.17158 -0.3205,0.28201 -0.07,0.0874 -0.067,0.21167 -0.1409,0.29482 -0.1633,0.18467 -0.8017,0.49971 -1.0512,0.67942 -0.5777,0.55661 -1.3048,0.86709 -1.9613,1.32033 -0.4984,0.70757 -1.4657,0.7629 -1.9613,1.43572 -0.7482,0.52675 -1.424,1.11052 -2.2049,1.58955 -0.096,0.034 -0.2121,0.0431 -0.2948,0.10255 -0.2225,0.16007 -0.3553,0.41225 -0.5641,0.58967 -0.2985,0.25408 -0.6217,0.44105 -0.9485,0.65378 -0.4131,-0.0168 -0.3245,0.47409 -0.564,0.61532 -0.1,0.0595 -0.2385,-0.0436 -0.3462,0 -0.32,0.12859 -0.5865,0.51862 -0.8845,0.70502 -0.3077,0.0825 -0.5615,0.24649 -0.8076,0.42304 -0.091,0.018 -0.1681,0.0312 -0.2692,0.064 -0.3149,0.0983 -0.5869,0.35643 -0.9101,0.42304 -0.1393,0.0291 -0.2812,-0.0263 -0.423,-0.0385 -0.1517,0.132 -0.2658,0.3266 -0.4487,0.4102 -0.164,0.0752 -0.3622,0 -0.5384,0.0385 -0.6562,0.14706 -1.291,0.48458 -1.8588,0.83321 -1.012,0.22012 -2.2001,0.56219 -3.0894,1.08963 -0.8933,0.4326 -1.7913,0.77443 -2.6919,1.17935 -0.2776,0.13979 -0.543,0.32447 -0.8332,0.43584 -0.1371,0.0521 -0.2909,0.0254 -0.423,0.0897 -0.1872,0.091 -0.3225,0.28735 -0.5128,0.37176 -1.6283,0.72213 0.3419,-0.51361 -1.0896,0.44864 -0.5772,0.34171 -1.2334,0.50054 -1.7819,0.89733 -0.1056,0.0764 -0.1662,0.21524 -0.2692,0.29486 -0.1404,0.10801 -0.3065,0.17023 -0.4614,0.25638 -0.2271,0.15071 -0.3942,0.38625 -0.6282,0.52555 -0.5333,0.31706 -1.2471,0.36554 -1.7049,0.84605 -0.271,0.20006 -0.5712,0.32189 -0.8589,0.47432 -0.052,0.0337 -0.1035,0.0665 -0.1538,0.10256 -0.1076,0.0758 -0.2128,0.15489 -0.3204,0.23073 -0.036,0.0242 -0.068,0.0523 -0.1026,0.077 0.1336,-0.0693 0.1665,-0.0474 -0.3333,0.33329 -0.1091,0.0837 -0.2498,0.12892 -0.3718,0.19226 -0.022,0.005 -0.043,0.008 -0.064,0.0127 -0.022,0.0164 -0.042,0.0349 -0.064,0.0513 -0.1132,0.0867 -0.2336,0.16855 -0.3461,0.25638 -0.1158,0.0866 -0.231,0.1816 -0.3461,0.26918 -0.1174,0.0899 -0.2281,0.18004 -0.3461,0.26921 -0.119,0.0918 -0.241,0.18886 -0.3589,0.28202 -0.1195,0.0896 -0.2396,0.1795 -0.3589,0.26918 -0.1237,0.0959 -0.2477,0.18681 -0.3718,0.28201 -0.1231,0.0923 -0.2486,0.18977 -0.3717,0.28203 -0.1231,0.0902 -0.2353,0.17987 -0.3589,0.26921 -0.127,0.0942 -0.2558,0.19021 -0.3847,0.28201 -0.1254,0.0899 -0.2459,0.17984 -0.3717,0.26918 -0.1264,0.0944 -0.257,0.18927 -0.3846,0.28202 -0.1292,0.0944 -0.267,0.17618 -0.3973,0.26922 -0.1297,0.091 -0.2536,0.19288 -0.3845,0.28202 -0.1325,0.0939 -0.2643,0.17642 -0.3975,0.26918 -0.1347,0.091 -0.2747,0.19226 -0.4102,0.28201 -0.1369,0.0953 -0.2715,0.18947 -0.4102,0.28201 -0.1379,0.0923 -0.2843,0.17812 -0.423,0.26922 -0.1355,0.0889 -0.2622,0.16716 -0.3974,0.25638 -0.1352,0.0872 -0.277,0.1791 -0.4102,0.26918 -0.1333,0.0882 -0.2655,0.17897 -0.3974,0.26921 -0.1133,0.0764 -0.2211,0.15264 -0.3333,0.23075 -0.013,0.006 -0.027,0.018 -0.038,0.0254 -0.01,0.004 -0.01,0.009 -0.013,0.0127 -0.1296,0.0897 -0.2694,0.17713 -0.3973,0.26922 -0.108,0.077 -0.2121,0.15444 -0.3205,0.23073 -0.015,0.0127 -0.024,0.0254 -0.039,0.0386 -0.01,0.005 -0.017,0.007 -0.026,0.0127 -0.01,0.004 -0.01,0.008 -0.013,0.0127 -0.029,0.0271 -0.06,0.0495 -0.09,0.0769 -0.027,0.0246 -0.049,0.0515 -0.077,0.0769 -0.028,0.0283 -0.061,0.0617 -0.09,0.0897 -0.03,0.0299 -0.06,0.0597 -0.09,0.0897 -0.028,0.0291 -0.062,0.0598 -0.09,0.0897 -0.029,0.0307 -0.049,0.058 -0.077,0.0897 -0.03,0.0328 -0.059,0.0693 -0.09,0.10255 -0.03,0.032 -0.06,0.07 -0.09,0.10256 -0.029,0.034 -0.059,0.0687 -0.09,0.10255 -0.027,0.0312 -0.064,0.0574 -0.09,0.0897 -0.027,0.0337 -0.052,0.0676 -0.077,0.10255 -0.025,0.034 -0.041,0.0672 -0.064,0.10255 -0.023,0.0357 -0.042,0.0786 -0.064,0.11535 -0.022,0.0377 -0.044,0.0765 -0.064,0.11539 -0.021,0.0402 -0.045,0.0746 -0.064,0.11535 -0.02,0.042 -0.033,0.0855 -0.051,0.12819 -0.018,0.043 -0.035,0.0846 -0.051,0.12819 -0.016,0.0415 -0.039,0.0859 -0.051,0.12819 -0.012,0.0402 -0.015,0.0873 -0.026,0.12819 -0.01,0.0417 -0.018,0.0731 -0.026,0.11539 -0.01,0.0434 -0.01,0.0973 -0.013,0.14099 0,0.0445 -0.011,0.0836 -0.013,0.12818 0,0.0457 -4e-4,0.0953 0,0.14103 3e-4,0.0436 0,0.0847 0,0.1282 0,0.0418 0.01,0.0866 0.013,0.12818 0.01,0.0406 0.018,0.0752 0.026,0.11535 0.01,0.0386 0.016,0.0776 0.026,0.11539 0.011,0.0382 0.026,0.0779 0.038,0.11535 0.014,0.0393 0.023,0.0766 0.038,0.1154 0,0.004 0,0.0107 0,0.0127 0.4959,0.51596 1.1566,0.90976 1.9741,1.0768 0.1326,-0.016 0.2644,-0.037 0.3974,-0.0513 0.178,-0.0185 0.3605,-0.032 0.5384,-0.0513 0.175,-0.0185 0.3514,-0.039 0.5256,-0.064 0.1759,-0.0238 0.3499,-0.0511 0.5256,-0.0769 0.1734,-0.0254 0.3397,-0.0489 0.5128,-0.0769 0.1786,-0.0291 0.3593,-0.0623 0.5384,-0.0897 0.1754,-0.0291 0.3495,-0.05 0.5255,-0.0769 0.1765,-0.0295 0.3615,-0.0628 0.5384,-0.0897 0.1727,-0.0295 0.34,-0.0477 0.5128,-0.0769 0.1767,-0.0304 0.3611,-0.0627 0.5383,-0.0898 0.1736,-0.0238 0.3386,-0.0446 0.5128,-0.064 0.1731,-0.0221 0.3526,-0.0535 0.5256,-0.0769 0.1724,-0.0213 0.3403,-0.0417 0.5128,-0.0641 0.1715,-0.0205 0.3418,-0.0385 0.5127,-0.064 0.1657,-0.0185 0.3345,-0.0427 0.4999,-0.0641 0.1688,-0.0226 0.3308,-0.0454 0.5,-0.064 0.1656,-0.0209 0.3338,-0.0337 0.4998,-0.0512 0.1649,-0.0205 0.3348,-0.0477 0.5,-0.0641 0.1318,-0.0156 0.265,-0.0254 0.3975,-0.0385 0.035,-0.004 0.069,-0.009 0.1024,-0.0127 0.1689,-0.0201 0.3308,-0.0345 0.5,-0.0512 0.077,-0.006 0.154,-0.007 0.2307,-0.0127 0.01,-0.004 0.016,-0.0111 0.026,-0.0127 0.083,-0.0147 0.1722,-0.0115 0.2564,-0.0127 0.1726,-0.009 0.3528,-0.0185 0.5255,-0.0254 0.039,0 0.077,0 0.1154,0 0.026,0 0.051,0 0.077,0 0.9466,-0.0595 1.872,-0.20904 2.833,-0.24358 1.1668,-0.30322 2.3619,-0.18562 3.538,-0.4102 0.6798,-0.31238 1.4557,-0.23583 2.1664,-0.37174 0.6026,-0.11526 0.5867,-0.16986 0.5385,-0.1923 0.058,0 0.1983,0 0.5127,0.0127 0.4397,-0.20384 0.9432,-0.13069 1.3973,-0.25638 0.1972,-0.0546 0.3777,-0.18332 0.5768,-0.23074 0.3362,-0.0801 0.6818,-0.0521 1.0255,-0.0897 0.9168,-0.39995 1.9227,-0.25437 2.8586,-0.52556 1.0278,-0.17873 2.036,-0.31471 3.0509,-0.58968 0.9877,-0.16584 1.9417,-0.48322 2.9228,-0.67942 0.9599,-0.14562 1.8622,-0.35663 2.7945,-0.60246 0.4975,-0.0667 0.9949,-0.33301 1.487,-0.41021 0.1463,-0.023 0.29,0.0266 0.4358,0 0.3193,-0.0583 0.6196,-0.20875 0.9358,-0.28201 0.4925,-0.19005 1.0226,-0.19793 1.5383,-0.28203 0.576,0.11892 1.1746,0.14263 1.7177,0.37173 0.1332,0.0135 0.2731,-0.0115 0.3974,0.0385 0.1498,0.0607 0.2566,0.20276 0.3974,0.28202 0.4481,0.25252 1.0122,0.35154 1.5126,0.423 0.2963,0.47724 0.8067,0.45369 1.2563,0.65378 0.3518,0.15654 0.4448,0.22353 0.4486,0.24354 l -0.064,0 c 0.041,0.0119 0.053,0.0168 0.205,0.0641 0.6443,0.51969 1.3855,0.77225 2.0255,1.2819 0.8177,0.29895 1.3915,0.97152 2.1791,1.30752 0.3491,0.38794 0.888,0.51576 1.2948,0.82041 0.2254,0.16893 0.2356,0.2191 0.2051,0.23075 0.059,0.0144 0.1716,0.0511 0.4101,0.12818 0.081,0.057 0.1777,0.10727 0.2437,0.17947 0.6353,0.69932 -0.7423,-0.47658 0.3717,0.48711 0.2557,0.22143 0.5472,0.37453 0.7819,0.62812 0.06,0.13811 0.069,0.18615 0.077,0.2051 0,-0.0242 0.01,-0.15149 0.3717,0.23074 0.073,0.0765 0.055,0.20605 0.1282,0.28201 0.3077,0.32214 0.4816,0.29876 0.7307,0.71787 0.1128,0.53716 0.6963,0.68455 0.9743,1.06399 0.07,0.0971 0.053,0.23726 0.1025,0.34609 0.057,0.12367 0.1563,0.24501 0.2308,0.35893 0.5927,0.50188 0.8923,1.24908 1.1921,1.94848 0.1043,0.091 0.2351,0.16482 0.3076,0.28201 0.063,0.10075 0.022,0.24084 0.077,0.34614 0.2957,0.57285 0.8065,0.94047 1.0255,1.55107 0.3525,0.32447 0.3978,0.85142 0.6409,1.23062 0.4731,0.738 0.1625,-0.27205 0.3846,0.83325 0.557,0.69362 0.5746,1.59783 1.0127,2.33304 0.299,0.82316 0.5696,1.63418 1.0255,2.38433 -0.056,0.79247 0.4655,2.16916 0.8332,2.88423 0.2894,0.30142 0.1721,0.73325 0.3205,1.07679 0.06,0.13882 0.2001,0.23735 0.2692,0.37178 0.2112,0.4104 0.3852,0.91934 0.4743,1.3716 0.3839,0.85023 0.8474,1.63713 1.1281,2.52535 0.3159,0.49745 0.2364,0.40077 0.1922,0.3333 -0.021,0.0147 0,0.14656 0.1667,0.51275 0.055,0.12232 0.178,0.20396 0.2435,0.32045 0.2329,0.41316 0.3481,0.8778 0.577,1.29473 0.43,0.40467 0.3095,0.93462 0.487,1.42289 0.1856,0.51013 0.5492,0.69353 0.7563,1.41008 0.053,0.14098 0.1007,0.28201 0.1539,0.42304 0.1091,0.16281 0.2392,0.30901 0.3205,0.48712 0.069,0.15121 0.075,0.32989 0.1281,0.48712 0.1542,0.45443 0.4283,0.89114 0.641,1.32034 0.1464,0.19845 0.202,0.27012 0.2307,0.30764 -0.051,-0.0373 -0.1176,-0.0271 0.1666,0.56404 0.068,0.13979 0.2231,0.23415 0.2949,0.37177 0.2029,0.38838 0.352,0.88329 0.4743,1.30753 0.3561,0.38633 0.6738,0.8609 0.9102,1.33317 0.07,0.13664 0.072,0.29969 0.141,0.43585 0.1358,0.26572 0.3601,0.48228 0.5256,0.73065 0.073,0.1165 0.1551,0.21824 0.205,0.34614 0.045,0.11403 0.017,0.25744 0.064,0.37172 0.2062,0.51694 0.6414,1.00743 0.9102,1.49984 0.4351,0.39945 0.4481,1.03775 0.6922,1.49981 0.056,0.10435 0.1743,0.18345 0.2564,0.26922 0.077,0.15181 0.1549,0.2967 0.2307,0.44864 0.354,0.69054 0.7769,1.28657 0.9743,2.05103 0.3426,0.79506 0.7221,1.53955 1.1024,2.32025 0.086,0.92826 0.6309,1.68492 0.9358,2.55095 0.3355,0.34059 0.3516,0.83637 0.5512,1.23061 0.068,0.13386 0.2165,0.2113 0.282,0.34614 0.056,0.11649 0.025,0.26142 0.064,0.38456 0.053,0.16905 0.1476,0.32476 0.2179,0.48712 0.3838,0.31697 0.3705,0.7789 0.5769,1.17934 0.067,0.13029 0.1964,0.21905 0.2692,0.34609 0.062,0.1092 0.2841,0.72656 0.3333,0.87169 0.5251,0.80934 0.7999,1.75552 1.3844,2.52535 0.048,0.13541 0.076,0.27578 0.1538,0.39737 0.102,0.16235 0.2623,0.26565 0.3718,0.42304 0.2202,0.31635 0.2399,0.60929 0.3974,0.96141 0.1801,0.40236 0.3182,0.49663 0.6281,0.83325 0.4664,0.84596 1.0324,1.57318 1.628,2.33304 0.2904,0.7556 -0.038,0.0756 0.5128,0.82042 0.085,0.11526 0.1239,0.26396 0.2179,0.37172 0.123,0.14148 0.3195,0.21225 0.4358,0.35893 0.09,0.11289 0.1218,0.27857 0.1795,0.41021 0.1291,0.12827 0.2427,0.24354 0.3717,0.37177 0.4718,0.79674 1.0877,1.5251 1.7947,2.12794 0.016,0.51993 0.5369,0.66593 0.7819,0.99987 0.064,0.0862 0.014,0.2371 0.077,0.32046 0.482,0.34109 0.3012,0.14813 0.6024,0.55123 0.092,0.13615 0.168,0.27858 0.2821,0.39737 0.087,0.091 0.2232,0.12401 0.3077,0.21794 0.1128,0.12606 0.1611,0.30516 0.2691,0.43585 0.08,0.0959 0.2018,0.13499 0.2821,0.23073 0.3679,0.43868 0.3239,0.45185 0.282,0.43586 0.029,0.0242 0.097,0.0854 0.2692,0.23073 0.091,0.14284 0.1778,0.28017 0.2692,0.423 0.1104,0.0643 0.2629,0.10802 0.3461,0.20511 0.067,0.0777 0.039,0.1944 0.09,0.28202 0.1986,0.33357 0.5396,0.70838 0.782,1.01271 0.65,0.70769 1.2995,1.42957 2.0125,2.07667 0.057,0.12487 0.06,0.2714 0.1538,0.37173 0.1,0.10678 0.2791,0.11793 0.3846,0.21795 0.082,0.0789 0.1,0.21457 0.1667,0.30764 0.2701,0.37444 0.6337,0.65146 0.923,1.01268 0.641,0.18845 0.949,1.07129 1.3588,1.41008 1.7306,1.43076 -0.8285,-1.08241 0.8845,0.65379 0.6263,0.59443 1.2775,1.18776 1.9613,1.73054 0.3147,0.51168 0.9621,0.68201 1.3588,1.08962 0.6237,0.64104 -0.035,0.25023 0.6152,0.56404 0.475,0.56957 1.166,0.91627 1.6793,1.43572 0.1226,0.0862 0.2694,0.15969 0.3718,0.26917 0.9355,0.99996 -0.8713,-0.53667 0.4615,0.67943 0.09,0.0813 0.2285,0.0998 0.3205,0.17947 0.2171,0.1877 0.373,0.43662 0.5384,0.66658 0.1079,0.12437 0.1948,0.26459 0.3205,0.37173 0.1484,0.12646 0.3358,0.19735 0.487,0.32049 0.1572,0.12803 0.4875,0.5918 0.6154,0.70502 1.0969,0.97195 0.01,-0.209 0.7562,0.62815 0.7065,0.23981 1.0957,0.90311 1.7178,1.26905 0.8661,0.50919 0.034,-0.1491 0.8589,0.60252 0.2528,0.2832 0.6829,0.19053 0.9742,0.38456 0.1489,0.0995 0.2261,0.30142 0.3846,0.38457 0.177,0.0922 0.3924,0.039 0.5768,0.11535 0.2168,0.0909 0.5501,0.5078 0.6794,0.65379 0.5347,0.0123 0.7704,0.43145 1.1665,0.69222 0.3543,0.23333 0.7909,0.27053 1.2691,0.58967 0.7211,0.44323 1.5318,0.72381 2.1921,1.25626 0.1347,0.0595 0.2625,0.12076 0.3973,0.17946 0.055,0.10071 0.072,0.23078 0.1667,0.29482 0.126,0.085 0.3073,0.0608 0.4487,0.11539 0.425,0.16539 0.7639,0.42341 1.0896,0.73066 0.1796,0.19521 0.4874,0.14385 0.6794,0.30765 0.088,0.0752 0.078,0.23423 0.1538,0.3205 0.2372,0.26683 0.6967,0.41073 0.9871,0.6153 0.69,0.5247 1.339,1.1711 2.1151,1.56391 0.077,0.10071 0.1352,0.22919 0.2435,0.29481 0.1427,0.0862 0.3267,0.0503 0.4744,0.1282 0.096,0.051 0.1493,0.17163 0.2307,0.24358 0.3169,0.28009 0.6551,0.4004 0.9743,0.67938 0.3791,0 0.4188,0.3986 0.6666,0.55124 0.137,0.085 0.3248,0.0815 0.4614,0.16662 0.414,0.25835 0.6417,0.57634 1.0896,0.80762 0.5,0.0837 0.6884,0.44839 1.1024,0.66658 -1.2214,0.82086 -2.0095,2.32562 -1.5895,4.35844 -0.064,0.21614 0.2601,0.48535 0.077,0.53839 0.029,0.18103 0.034,0.28218 0.039,0.37173 0,0.21453 -0.1294,0.0857 -0.2052,0.29485 -0.019,0.0546 0.034,0.1462 -0.013,0.17948 -0.055,0.039 -0.1505,-0.0127 -0.2179,-0.0127 0,0.0946 0.057,0.18537 0.013,0.26921 -0.038,0.0728 -0.4894,0.17302 -0.4999,0.17947 -0.2813,0.17487 -0.668,0.53068 -0.8973,0.76914 -0.7094,0.34883 -1.4375,0.63848 -2.1536,0.97423 -0.5036,0.17147 -0.9519,0.50472 -1.4614,0.65375 -0.1648,0.0485 -0.3392,0.041 -0.4999,0.10255 -0.1409,0.0534 -0.2698,0.16347 -0.3974,0.24358 -0.4937,0.21417 -0.2088,0.10801 -0.8461,0.28202 -0.553,0.23697 -0.9419,0.70497 -1.6023,0.69222 -0.2463,0.15641 -0.4036,0.27812 -0.6794,0.35893 -0.1608,0.0474 -0.3352,0.0437 -0.4872,0.11535 -0.1348,0.0631 -0.2153,0.21044 -0.346,0.28202 -0.2413,0.13188 -0.5764,0.0172 -0.7691,0.28201 -0.3829,0.38272 -0.6216,0.45492 -1.1666,0.5384 -0.1548,0.0241 -0.3149,-0.016 -0.4615,0.0385 -0.625,0.23431 -0.3897,0.2661 -0.2051,0.25638 -0.097,0.0123 -0.2341,0.009 -0.6409,0.064 -0.8782,0.47432 -1.7502,0.9566 -2.7176,1.24345 -0.6725,0.57224 -1.5606,0.75462 -2.2946,1.24342 -0.7602,0.44861 -1.59,0.76294 -2.3331,1.24346 -0.8806,0.29256 -1.6804,0.85934 -2.4612,1.3588 -0.3604,0.18591 -0.882,0.4929 -1.2178,0.71786 -0.1536,0.10318 -0.2688,0.25688 -0.423,0.35893 -0.1369,0.091 -0.3085,0.10194 -0.4359,0.20511 -0.1031,0.0837 -0.1566,0.22298 -0.2307,0.33329 -0.4804,0.25675 -0.9055,0.56932 -1.3204,0.89733 -0.7271,-0.4308 -1.6392,-0.65588 -2.756,-0.5384 -0.3483,0.0595 -0.7302,0.19386 -1.0896,0.15383 -0.1469,-0.0156 -0.2884,-0.10813 -0.4359,-0.1154 -0.6181,-0.0279 -0.5055,0.051 -0.4102,0.0897 -0.057,-0.0168 -0.1729,-0.0527 -0.4743,-0.12819 -0.1494,0.0825 -0.2719,0.20761 -0.4358,0.25638 -0.2182,0.0643 -1.7743,-0.0637 -2.051,-0.10255 -1.0353,-0.0353 -2.0352,-0.0139 -3.0638,-0.10255 -0.2132,-0.0279 -0.4259,-0.0721 -0.6409,-0.0769 -0.1779,0 -0.9391,0.10197 -1.1281,0.11535 -0.5815,0.039 -1.1498,0.018 -1.7306,0.0897 -0.3626,-0.0534 -0.6475,0.20679 -0.9871,0.24354 -0.2075,0.023 -0.4198,-0.0529 -0.628,-0.0385 -0.4856,0.0329 -0.9887,0.27402 -1.4614,0.38457 -1.0445,0.14526 -2.0547,0.31713 -3.0765,0.58967 -1.3924,0.16917 0.1451,-0.11609 -1.2307,0.44864 -0.2289,0.0947 -0.4901,0.0693 -0.7178,0.16667 -0.6771,0.29002 -0.6166,0.51452 -1.205,0.92296 -0.2104,0.146 -0.4658,0.2394 -0.6923,0.35894 -0.2928,0.38149 -0.6438,0.62798 -0.9613,0.98703 -4.0909,3.77744 1.2418,9.57174 5.3327,5.79414 0.3688,-0.1391 0.5192,-0.3854 0.8075,-0.641 0.2063,-0.1188 0.4011,-0.2344 0.641,-0.3204 0.4685,-0.2673 0.6681,-0.1217 1.1793,-0.2436 0.1397,-0.033 0.2559,-0.1433 0.3974,-0.1666 0.1213,-0.019 0.2494,0.026 0.3717,0.038 0.1643,-0.048 0.3228,-0.093 0.4872,-0.141 0.8177,-0.3294 1.702,-0.2688 2.5766,-0.3589 0.034,-0.013 0.081,-0.018 0.1154,-0.026 -0.4951,0.3139 -0.9958,0.6282 -1.3588,1.1153 -0.723,0.7933 -1.48,1.5549 -2.0511,2.474 -0.6763,1.3939 0.1258,-0.1 -0.7306,1.128 -0.3226,0.4625 -0.4679,0.9974 -0.6666,1.5127 -0.057,0.1481 -0.1384,0.2919 -0.2051,0.4359 -0.3313,0.9236 -0.5716,1.8513 -0.7948,2.8073 -1.1661,5.5396 6.6531,7.1931 7.8195,1.6536 0.053,-0.052 0.1451,-0.095 0.1667,-0.1667 0.034,-0.1128 -0.015,-0.2287 0,-0.3461 0.048,-0.3945 0.197,-0.9234 0.3845,-1.269 0.013,-0.4596 0.6719,-0.9275 0.6154,-1.3332 0.092,-0.059 0.2325,-0.069 0.282,-0.1667 0.044,-0.086 -0.069,-0.2023 -0.038,-0.2947 0.012,-0.025 0.7428,-0.6393 0.8332,-0.6923 0.3511,-0.2282 0.5776,-0.7177 0.9358,-0.923 0.5561,-0.3186 0.4573,-0.1612 0.359,-0.051 0.05,-0.048 0.1269,-0.1113 0.3589,-0.3205 0.7495,-0.5249 1.5236,-1.0531 2.333,-1.4998 0.5418,-0.5019 1.2794,-0.6712 1.8844,-1.0896 0.012,0 0.013,-0.013 0.013,-0.013 0,0.2652 0.016,0.5329 -0.09,0.9102 -0.024,0.7056 -0.028,0.3513 0.051,1.064 -0.505,5.568 7.3657,6.2857 7.8708,0.7178 0,-0.63 -0.011,-0.3101 0.026,-0.9358 0.026,-0.311 0.034,-0.3818 0.038,-0.4614 0,0.2 0.034,0.4008 0.2307,-0.4615 0.037,-0.1568 -0.047,-0.3145 -0.026,-0.4744 0.013,-0.07 0.037,-0.1506 0.064,-0.2178 0.678,0.207 1.3391,0.415 2.0255,0.6409 0.4522,0.07 0.9271,0.1254 1.3716,0.2307 0.1116,0.027 0.1954,0.1274 0.3077,0.1539 0.1395,0.033 0.3017,-0.036 0.4358,0.013 0.1571,0.06 0.2741,0.2099 0.4102,0.3077 0.3679,0.2568 0.9759,0.091 1.346,0.2947 0.5307,0.292 0.2995,0.29 0.1154,0.2565 0.076,0.018 0.1437,0.038 0.4229,0.1153 0.041,0.2353 1.0388,0.4019 1.0768,0.4999 0.024,0.062 -0.027,0.1269 -0.038,0.1923 0.234,-0.026 0.3618,0.3 0.4871,0.4615 3.7363,4.3091 9.8382,-0.985 6.1018,-5.2941 -0.3849,-0.4649 -0.8467,-0.787 -1.2178,-1.2692 l -0.6024,-0.3717 c -0.1714,-0.1554 -0.3206,-0.3458 -0.5128,-0.47436 -0.1804,-0.12012 -0.409,-0.13604 -0.5897,-0.25635 -0.166,-0.11042 -0.2754,-0.31151 -0.4486,-0.41023 -0.1368,-0.0778 -0.3179,-0.0393 -0.4615,-0.10256 -0.1815,-0.0814 -0.3345,-0.2354 -0.5,-0.3461 -0.7064,-0.19569 -1.3009,-0.598 -1.9869,-0.846 -0.1522,-0.0546 -0.3189,-0.0461 -0.4743,-0.0897 -0.1847,-0.0521 -0.3588,-0.13755 -0.5384,-0.20511 -1.0892,0.0789 0.1751,0.0879 -0.8717,-0.29481 -0.1792,-0.0655 -0.3745,0 -0.564,-0.0254 -0.5195,-0.0619 -0.2955,-0.0936 -0.8076,-0.23074 -0.1518,-0.0413 -0.307,-0.0607 -0.4615,-0.0897 0.2717,-0.16212 0.5409,-0.33563 0.7948,-0.5384 0.1245,-0.0123 0.2571,0.023 0.3717,-0.0254 0.1579,-0.068 0.2607,-0.23514 0.4102,-0.32046 0.488,-0.27857 1.0266,-0.4367 1.4999,-0.75633 0.4001,-0.39812 0.9906,-0.45895 1.4485,-0.7435 0.679,-0.4219 0.1305,-0.2563 0.846,-0.38457 0.6105,-0.48052 1.3402,-0.64038 2.051,-0.92297 0.6582,-0.38928 -0.1012,0.0177 0.8333,-0.29481 0.138,-0.0461 0.2433,-0.14489 0.3846,-0.17946 0.134,-0.0316 0.2835,0.0546 0.4102,0 0.1749,-0.0752 0.2752,-0.28206 0.4358,-0.38457 0.1253,-0.0802 0.2737,-0.10793 0.4102,-0.16667 0.1301,-0.0242 0.2779,-0.0197 0.3974,-0.0769 0.1677,-0.08 0.2857,-0.24387 0.4487,-0.33329 0.4926,-0.26987 1.1737,-0.4605 1.7177,-0.56404 0.1,-0.0862 0.1718,-0.20855 0.2948,-0.25638 0.1738,-0.0655 0.3757,0 0.5513,-0.064 0.9046,-0.32082 -0.1369,-0.1651 0.6409,-0.55122 0.108,-0.0533 0.2388,-0.0168 0.359,-0.0254 0.1455,-0.0947 0.2903,-0.17479 0.4358,-0.26918 0.816,-0.35093 1.6764,-0.62446 2.5253,-0.9358 0.092,-0.14574 0.1188,-0.35188 0.2692,-0.43584 0.1615,-0.091 0.3727,0.0218 0.5512,-0.0254 0.1393,-0.0377 0.2539,-0.15723 0.3846,-0.2179 0.2565,-0.11888 0.4873,-0.24678 0.7307,-0.37177 1,0.3365 2.1969,0.26655 3.4611,-0.44864 0.3158,-0.19416 0.6149,-0.42805 0.9486,-0.58967 0.1381,-0.0668 0.304,-0.0751 0.4358,-0.15383 0.4729,-0.28078 0.884,-0.70363 1.3716,-0.97424 0.7809,-0.60123 1.5839,-1.18877 2.3972,-1.73058 0.6003,-0.62622 1.4066,-1.00426 1.9997,-1.64082 0.096,-0.0521 0.6298,-0.35134 0.6666,-0.38456 0.081,-0.0728 0.085,-0.21045 0.1667,-0.28203 0.2519,-0.21961 0.6989,-0.28693 0.9101,-0.57682 0.012,-0.0123 0.025,-0.0172 0.038,-0.0254 0.2282,0.0607 0.4699,0.11096 0.7051,0.12819 0.5519,0.13447 1.0889,0.35368 1.6536,0.43585 0.1898,0.0291 0.3885,0 0.5769,0.0385 1.2276,0.23201 -0.1419,0.19673 1.128,0.16666 0.4427,0.32034 0.9487,0.16392 1.4357,0.25639 0.1841,0.0353 0.3549,0.15378 0.5384,0.19226 0.373,0.0777 0.7623,0.0729 1.1409,0.11539 0.1922,0.0168 0.3846,0.0205 0.5768,0.0385 0.19,0.0413 0.3707,0.10973 0.5641,0.12819 0.1464,0.0144 0.293,-0.0608 0.4358,-0.0254 0.1651,0.0402 0.2822,0.20999 0.4487,0.24358 0.1728,0.0353 0.3498,-0.0238 0.5256,-0.0385 0.1726,0.051 0.3528,0.103 0.5256,0.15382 1.0809,-0.0886 2.0697,0.39877 3.1278,0.46148 0.1917,0.0123 0.3868,0.0132 0.5768,0.0385 0.3865,0.0546 0.741,0.20531 1.1281,0.25638 0.572,0.0753 1.1911,0.0716 1.769,0.11534 0.1918,0.0497 0.3794,0.12467 0.5768,0.14103 0.3915,0.0329 0.7869,-0.0332 1.1794,-0.0127 0.5937,0.0316 1.1485,0.13701 1.7434,0.14103 1.2244,0.16162 2.4663,-0.12171 3.6662,0.15382 0.277,-0.0874 0.8638,-0.28156 1.1665,-0.30765 0.1851,-0.0156 0.3671,0.0512 0.5512,0.0254 0.1836,-0.0242 0.3409,-0.16638 0.5256,-0.17946 0.8811,-0.0643 0.8031,0.0365 0.6922,0.0897 0.07,-0.0205 0.1953,-0.0582 0.5512,-0.15383 1.1575,-0.0764 2.2596,-0.39363 3.397,-0.60247 1.0056,-0.2104 1.9822,-0.44942 2.9484,-0.79477 0.4214,-0.11527 0.856,-0.39085 1.2819,-0.47432 0.147,-0.0291 0.3175,0.0552 0.4615,0.0127 0.9861,-0.28662 0.7679,-0.30943 0.5384,-0.29486 0.091,-0.0119 0.1426,-0.0283 0.4743,-0.0769 0.1128,-0.0365 0.9598,-0.31053 1.0255,-0.32046 0.1859,-0.0279 0.3819,0.0461 0.564,0 0.17,-0.0425 0.2949,-0.20141 0.4615,-0.25638 0.1517,-0.051 0.2412,-0.0643 0.3333,-0.0898 0.013,0.1882 0,0.36877 -0.039,0.57687 -0.037,0.16745 -0.1153,0.34117 -0.1153,0.51276 0,0.4525 0.1991,0.46936 0.1025,0.88449 -0.1189,0.51033 -0.2486,0.60414 -0.2051,1.19218 -0.2984,0.92986 -0.1852,1.92263 -0.5128,2.83296 -0.062,0.98105 -0.2253,1.96682 -0.3077,2.94835 -0.224,0.88458 -0.3462,1.76627 -0.5511,2.65355 -0.4666,0.41414 -0.1534,0.91365 -0.282,1.41007 -0.041,0.16336 -0.1626,0.31496 -0.218,0.47429 -0.1375,0.39544 -0.1399,0.6756 -0.1666,1.08963 -0.041,0.18783 -0.072,0.37403 -0.1025,0.56403 -0.029,0.19378 -0.02,0.38535 -0.064,0.57684 -0.033,0.14303 -0.1119,0.27442 -0.1666,0.4102 -0.074,0.14939 -0.1926,0.2862 -0.2307,0.44868 -0.2403,1.0275 -0.1032,0.7759 0,0.52556 -0.037,0.10071 -0.05,0.15854 -0.1795,0.52563 -0.1056,1.14406 -0.3841,2.26491 -0.5384,3.40981 -0.1511,2.4052 0.113,-0.8756 -0.2051,0.987 -0.027,0.1584 0.02,0.3266 0.013,0.4871 -0.024,0.4913 -0.1367,0.926 -0.3333,1.3717 -0.1813,0.3028 -0.014,0.6509 -0.064,0.9614 -0.046,0.2587 -0.2408,0.451 -0.3075,0.7051 -0.3072,1.1698 0.1717,-0.2333 -0.2565,0.9742 0.06,0.5991 -0.2239,1.1498 -0.346,1.7177 -0.075,0.029 -0.1499,0.076 -0.2308,0.2051 -0.092,0.1468 -0.113,0.3352 -0.1666,0.4999 -0.2664,0.2056 -0.7916,0.6944 -0.9615,0.987 -0.083,0.145 -0.059,0.3463 -0.1666,0.4743 -0.075,0.09 -0.21,0.077 -0.3205,0.1155 -0.3417,0.5017 -0.7993,1.0873 -1.3716,1.3074 -0.3485,0.3267 -0.7285,0.7969 -1.1281,1.0512 -0.1273,0.081 -0.3025,0.1011 -0.4229,0.1923 -0.086,0.067 -0.1266,0.1818 -0.1924,0.2692 -0.3535,0.1519 -0.7569,0.2905 -1.0512,0.5512 -0.031,0.028 -0.055,0.065 -0.077,0.1026 -0.5448,0.1164 -1.0593,0.3454 -1.5895,0.487 -0.1517,0.041 -0.3184,0.033 -0.4743,0.051 -0.1882,0.064 -0.3758,0.1153 -0.564,0.1795 -0.7184,0.185 -1.4702,0.3327 -2.1536,0.6281 -0.1531,0.066 -0.2952,0.1797 -0.4358,0.2692 -0.1867,0.074 -0.3646,0.144 -0.5512,0.2179 -0.1586,0.034 -0.3283,0.032 -0.4744,0.1026 -0.1799,0.086 -0.3199,0.2498 -0.4871,0.3589 -0.6088,0.3975 -1.2103,0.7099 -1.7562,1.205 -0.2941,0.2938 -0.7731,0.3036 -1.0768,0.5768 -0.1189,0.1068 -0.105,0.2989 -0.205,0.4231 -0.309,0.3852 -0.7829,0.7866 -1.205,1.0383 -0.267,0.5221 -0.6772,0.9085 -0.9999,1.3973 -3.3328,4.5007 3.038,9.2181 6.371,4.7173 0.1781,-0.1883 0.3645,-0.3013 0.423,-0.5768 0.3951,-0.3865 0.8658,-0.7052 1.2306,-1.0897 0.097,-0.068 0.1917,-0.1354 0.2949,-0.1923 0.052,-0.029 0.1304,-3e-4 0.1666,-0.051 0.07,-0.095 0.015,-0.2898 0.1153,-0.3461 0.1332,-0.073 0.3042,0.073 0.4487,0.026 0.207,-0.066 0.1446,-0.5242 0.5,-0.4102 0.6389,-0.1942 1.1916,-0.5925 1.8844,-0.6153 0.7122,-0.3208 1.5276,-0.2881 2.2561,-0.564 0.024,0 0.053,-0.013 0.077,-0.013 -0.023,0.068 -0.057,0.1384 -0.077,0.2179 -0.4905,0.8895 -0.7964,1.8361 -1.1025,2.8073 -0.015,0.1504 -0.013,0.3036 -0.051,0.4487 -0.1252,0.4309 -0.3316,0.5184 -0.4743,0.9486 -0.1726,0.5203 -0.2774,1.1511 -0.3846,1.6921 -0.3374,0.5347 -0.2358,1.1447 -0.3333,1.7305 -0.096,0.576 -0.2259,1.134 -0.3076,1.7178 -0.1153,1.1775 -0.2397,2.3481 -0.2692,3.5379 0.017,0.1792 0.033,0.3594 0.051,0.5384 -0.033,0.1773 -0.1098,0.3587 -0.1025,0.5385 0.013,0.1836 0.1337,0.342 0.141,0.5256 0.012,0.18 -0.083,0.3465 -0.1025,0.5256 -0.015,0.1254 -0.013,1.1093 -0.013,1.1792 0.049,0.1938 0.1453,0.3902 0.1538,0.5898 0.013,0.2285 -0.1111,0.4506 -0.1026,0.6794 0.013,0.198 0.1149,0.3676 0.141,0.564 0.023,0.1771 -0.019,0.3627 0.013,0.5384 0.2034,1.1083 0.2095,-0.1397 0.1282,0.9743 0.1189,0.6134 0.098,0.2979 0.1025,0.9229 0.4976,4.187 5.0786,4.6929 7.0249,2.3074 0.411,3.9198 6.3462,5.1274 7.8195,0.4615 0.1877,-0.622 0.4981,-1.262 0.6025,-1.9101 0.1869,-1.1632 -0.1978,0.039 0.2051,-1.0895 0.2895,-0.7958 0.1268,-1.5613 0.1538,-2.3716 0.012,-0.2166 0.1499,-1.0152 0.1795,-1.1921 0.044,-0.5285 -0.2216,-1.0979 -0.2051,-1.6152 0.012,-0.1722 0.13,-0.3282 0.141,-0.5 0.024,-0.3775 -0.1239,-0.7953 -0.2179,-1.1537 0.2112,-1.0039 -0.283,-1.8723 -0.2693,-2.897 2.1609,3.7558 8.413,1.7835 7.2428,-3.2048 -0.1116,-1.039 -0.6762,-1.9713 -0.6025,-3.038 -0.3566,-0.5403 -0.4339,-0.9809 -0.6025,-1.6025 -0.048,-0.1759 -0.014,-0.3675 -0.077,-0.5383 -0.059,-0.1593 -0.2175,-0.2788 -0.282,-0.4358 -0.056,-0.1368 -0.062,-0.304 -0.09,-0.4487 -0.1092,-0.2154 -0.4719,-0.8918 -0.564,-1.1152 -0.082,-0.1978 -0.1064,-0.4124 -0.2051,-0.6025 -0.1,-0.1917 -0.2864,-0.3462 -0.3846,-0.5384 -0.3868,-0.7562 -0.2781,-0.6906 -0.2051,-0.6153 -0.045,-0.06 -0.1276,-0.2011 -0.3589,-0.5256 -0.217,-0.3363 -0.4051,-0.6865 -0.6538,-0.9999 -0.3834,-0.4827 -0.9742,-0.8265 -1.1409,-1.4486 0.037,-0.3444 0.041,-0.7109 0,-1.1023 -0.2033,-0.4585 -0.2764,-0.8926 -0.1795,-1.3973 0.013,-1.0095 -0.125,-2.0314 -0.3461,-3.0124 -0.022,-0.1633 -0.042,-0.324 -0.064,-0.4872 -0.06,-0.1536 -0.168,-0.2984 -0.1923,-0.4615 -0.024,-0.1671 0.079,-0.3484 0.038,-0.5127 -0.039,-0.1605 -0.1933,-0.2576 -0.2565,-0.4102 -0.059,-0.1424 -0.07,-0.2983 -0.1025,-0.4487 -0.062,-0.1329 -0.1181,-0.2645 -0.1794,-0.3974 -0.033,-0.1055 -0.067,-0.2382 -0.09,-0.3589 0.1428,-0.6723 0.2514,-1.342 0.4615,-2.0126 0.062,-0.6368 0.2572,-1.2469 0.3461,-1.8843 0.028,-0.195 4e-4,-0.4 0.051,-0.5896 0.041,-0.1504 0.1561,-0.273 0.2308,-0.4103 0.066,-0.2307 0.1922,-0.6271 0.1922,-0.8717 2e-4,-0.1681 -0.1073,-0.3345 -0.077,-0.5 0.033,-0.1784 0.2167,-0.3104 0.2564,-0.487 0.1362,-0.6057 0.026,-0.5172 -0.051,-0.3974 0.026,-0.051 0.043,-0.075 0.1283,-0.2564 0.2994,-1.4224 0,-2.58117 -0.6282,-3.43549 0.078,-0.55021 0.1364,-1.10788 0.3205,-1.62798 0.4222,-0.92607 0.5383,-1.9785 0.7178,-2.97399 0.481,-1.01735 0.3741,-2.18512 0.641,-3.2688 0.1899,-0.99636 0.1468,-2.02445 0.4871,-2.98684 3e-4,-0.41862 0.027,-1.43285 0.1411,-1.80745 0.049,-0.16367 0.1666,-0.29486 0.2051,-0.46148 0.041,-0.17922 0.03,-0.36762 0.038,-0.55123 0.5247,-1.80787 -0.046,0.44864 0.1282,-1.12807 0.021,-0.18627 0.1579,-0.35118 0.1667,-0.53839 0.012,-0.20872 -0.1105,-0.41928 -0.1154,-0.62812 0,-0.31257 0.2349,-0.60964 0.1154,-0.93579 0.1801,-0.68136 -0.083,-0.79819 -0.013,-1.29469 0.035,-0.25073 0.2979,-0.69867 0.1794,-1.08964 0.037,-0.34023 0.036,-0.6562 0.013,-0.9614 0.013,0 0.025,-0.0127 0.038,-0.0127 0.17,-0.0144 0.3458,0.0853 0.5127,0.0513 0.9979,-0.20933 -0.012,-0.37481 0.8846,-0.15383 0.1441,-0.051 0.2836,-0.1418 0.4358,-0.15383 0.1637,-0.0135 0.3108,0.0648 0.4743,0.077 1.0366,0.0801 -0.03,-0.0583 1.0255,-0.11535 1.8546,-0.0983 -0.7968,0.25305 1.0768,-0.0254 0.1838,0.0533 0.3603,0.15592 0.5513,0.16663 0.1861,0.0123 0.3657,-0.0843 0.5511,-0.10256 0.7414,-0.0728 1.4853,-0.063 2.2305,-0.0897 0.1877,0 0.3764,0 0.5641,0 0.1882,0.0437 0.3837,0.12069 0.5768,0.1282 0.3038,0.0124 0.5934,-0.13742 0.8974,-0.1282 0.6274,0.0825 0.3178,0.0636 0.8845,0.0769 0.7935,0.24269 1.629,0.22604 2.3972,0.5384 0.755,0.10555 1.4474,0.43433 2.1407,0.7435 0.8119,0.27267 1.4954,0.81069 2.333,1.03831 0.1177,0.034 0.2367,0.0479 0.3461,0.10255 0.2963,0.14805 0.5351,0.39573 0.8204,0.56404 0.3872,0.22861 0.8463,0.27714 1.2563,0.47432 0.3255,0.33272 0.8145,0.38514 1.205,0.60247 0.1644,0.091 0.2791,0.23894 0.4486,0.32049 0.1165,0.0558 0.2582,0.0502 0.3846,0.0769 0.1356,0.0764 0.2747,0.15489 0.4102,0.23075 0.6425,0.0728 1.0481,0.61378 1.628,0.84605 0.1104,0.0436 0.2293,0.0435 0.3461,0.064 0.1327,0.0643 0.2517,0.14078 0.3846,0.20511 0.3775,0.19292 0.8387,0.26893 1.205,0.48712 0.1478,0.0874 0.2491,0.24734 0.4101,0.30764 0.5871,0.21976 0.4715,0.0637 0.3589,-0.0385 0.057,0.0449 0.1321,0.10119 0.3847,0.28201 0.39,0.0123 1.1683,0.65129 1.4357,0.7435 0.096,0.0328 0.2047,0.021 0.3077,0.0127 0.074,0.0607 0.1507,0.11437 0.2307,0.16666 1.2216,0.79187 -0.4735,-0.61354 0.8076,0.51276 0.1334,0.0291 0.2882,0.0148 0.3974,0.0898 0.1408,0.10677 0.1674,0.32845 0.3076,0.43585 0.4722,0.36147 0.4957,0.0658 0.9358,0.32049 0.202,0.11649 0.3288,0.3179 0.5128,0.46148 0.656,0.42604 1.1902,0.99893 1.8331,1.44851 0.071,0.0862 0.1544,0.16462 0.2179,0.25638 0.136,0.19633 0.178,0.4457 0.3461,0.61532 0.3522,0.35544 0.6802,0.30462 0.8717,0.78197 0.4168,0.63655 0.8948,1.22361 1.3075,1.87157 0.2397,0.81615 0.8998,1.37279 1.346,2.06383 0.082,0.1354 0.1698,0.2519 0.2308,0.39741 0.053,0.12752 0.029,0.27967 0.1025,0.39736 0.2429,0.394 0.4825,0.34059 0.6922,0.7307 0.1602,0.29768 0.2211,0.63299 0.3717,0.93576 0.4655,0.35663 0.4893,0.87837 0.8845,1.29473 0.1,0.10558 0.2437,0.15462 0.3333,0.26916 0.1966,0.25169 0.302,0.56037 0.4872,0.8205 0.1834,0.4801 0.7016,0.6991 0.9871,1.0896 0.081,0.1091 0.082,0.2566 0.1538,0.3717 0.2455,0.3983 0.31,0.3882 0.6538,0.6282 0.6206,0.8773 1.4311,1.6831 2.3202,2.2945 0.4024,0.1819 0.5963,0.6234 0.9614,0.8461 0.1392,0.085 0.3127,0.1152 0.4486,0.205 0.2171,0.1438 0.3872,0.3536 0.6026,0.5 0.1494,0.2547 0.4794,0.2068 0.6793,0.3717 0.089,0.073 0.086,0.2032 0.1538,0.2949 0.2315,0.3075 0.599,0.6091 0.8974,0.846 0.8733,0.5824 1.5825,1.3467 2.5894,1.7433 0.9145,0.8987 2.201,1.2093 3.4355,1.4229 0.652,0.057 1.3086,0.363 1.9613,0.3975 0.4809,0.025 1.4854,-0.1295 1.9997,-0.1667 0.6314,-0.1541 1.6173,-0.4537 2.1665,-0.8076 0.2187,-0.1409 0.3711,-0.3662 0.5768,-0.5256 0.4802,-0.3719 0.6057,-0.421 0.6282,-0.4102 -0.013,0.027 0,0.017 0.5383,-0.5383 0.9729,-1.0187 1.2128,-2.4724 1.4357,-3.8201 0.029,-0.1573 0.018,-0.3167 0,-0.4743 0.081,0.023 0.1513,0.049 0.1923,0.077 0.034,0.029 0.058,0.077 0.1026,0.077 0.034,0 0.03,-0.073 0.064,-0.077 0.066,-0.013 0.7199,0.2048 0.9229,0.218 0.5794,0.2751 1.1119,0.5609 1.705,0.8075 0.8009,0.3663 1.5552,0.8306 2.4227,1.0127 0.8653,0.3513 1.6721,0.8487 2.551,1.1537 0.1484,0.012 0.2931,0 0.4358,0.038 0.1788,0.051 0.3239,0.1713 0.4999,0.2307 0.6187,0.2091 1.3815,0.2655 2.0255,0.3718 1.9534,0.06 3.6359,-1.0147 4.461,-2.8073 0.1609,-0.3498 0.1707,-0.7528 0.2563,-1.1281 0.2636,-1.0711 -0.2001,-1.4662 -0.4486,-2.3971 -0.029,-0.1105 0.013,-0.2433 -0.039,-0.3461 -0.1244,-0.2498 -0.3539,-0.434 -0.5256,-0.6538 -0.3178,-0.648 -0.7508,-1.27298 -1.1921,-1.85878 -0.1032,-0.0549 -0.223,-0.0869 -0.2948,-0.17941 -0.1032,-0.13137 -0.1113,-0.31554 -0.1923,-0.4615 -0.2473,-0.44655 -0.7236,-0.83325 -1.0127,-1.26909 -0.1615,-0.11166 -0.3371,-0.19317 -0.4743,-0.33329 -0.091,-0.0935 -0.1076,-0.25861 -0.1923,-0.35894 -0.4011,-0.47859 -0.9966,-0.85216 -1.4485,-1.29469 -0.3492,-0.26102 -0.634,-0.68029 -1.0255,-0.88453 -0.1516,-0.0789 -0.333,-0.0702 -0.4744,-0.16663 -0.097,-0.0667 -0.1279,-0.20542 -0.2051,-0.29484 -0.1019,-0.11893 -0.2214,-0.22374 -0.3333,-0.3333 -0.8903,-0.36804 -1.4804,-1.11358 -2.3073,-1.60234 -0.7269,-0.52544 -1.4886,-0.95804 -2.2177,-1.487 -0.119,-0.0377 -0.2557,-0.0304 -0.3462,-0.11539 -0.1288,-0.12135 -0.1328,-0.34872 -0.2692,-0.46149 -0.09,-0.074 -0.2354,0 -0.3461,-0.0385 -0.3432,-0.11526 -0.6865,-0.42427 -0.9999,-0.60251 -0.2059,-0.39556 -0.6535,-0.55402 -0.9486,-0.87169 -0.073,-0.0789 -0.078,-0.20756 -0.1666,-0.26917 -0.082,-0.0571 -0.2083,-0.0357 -0.3077,-0.0513 -0.3733,-0.19743 -0.3876,-0.62597 -0.6537,-0.91016 -0.3177,-0.33916 -0.592,-0.40086 -0.7692,-0.87168 -0.5615,-0.66738 -1.1476,-1.26578 -1.6407,-1.98692 -0.086,-0.1325 -0.429,-0.68197 -0.5128,-0.75634 -0.1577,-0.13942 -0.3882,-0.17315 -0.5384,-0.32045 -0.1068,-0.10436 -0.1151,-0.27886 -0.2052,-0.39741 -0.232,-0.30376 -0.543,-0.53171 -0.8203,-0.79478 -0.1587,-0.14222 -0.3156,-0.28078 -0.4743,-0.42299 -0.126,-0.0777 -0.274,-0.14531 -0.3846,-0.24359 -0.082,-0.0716 -0.1181,-0.16744 -0.1794,-0.25638 -0.1044,-0.11162 -0.1908,-0.24817 -0.3077,-0.34609 -0.5554,-0.37714 -0.3176,-0.19304 -0.7435,-0.55123 -0.3112,-0.0728 -0.3589,-0.42247 -0.5897,-0.57683 -0.136,-0.091 -0.3158,-0.0967 -0.4486,-0.19231 -0.1553,-0.11162 -0.5399,-0.62528 -0.7692,-0.82041 -0.3791,-0.0995 -0.471,-0.46333 -0.7563,-0.66659 -0.1153,-0.0825 -0.2588,-0.13101 -0.3589,-0.23073 -0.074,-0.074 -0.094,-0.17573 -0.1411,-0.26918 -0.1188,-0.0959 -0.2397,-0.19973 -0.3589,-0.29486 -0.3481,-0.18993 -0.4583,-0.6281 -0.705,-0.88448 -0.1128,-0.11774 -0.2859,-0.1766 -0.4103,-0.28202 -0.2086,-0.17692 -0.3727,-0.40701 -0.564,-0.60251 -0.3608,-0.69817 -1.0639,-1.06252 -1.6151,-1.56391 -0.3413,-0.74104 -1.0072,-1.22463 -1.5511,-1.82029 -0.037,-0.14456 -0.016,-0.31438 -0.1026,-0.43584 -0.1258,-0.17742 -0.5804,-0.39541 -0.7563,-0.5512 -0.3493,-0.30941 -0.6039,-0.73045 -0.8973,-1.08963 -0.578,-0.63421 -1.4476,-1.07823 -1.8203,-1.87156 -0.1177,-0.10436 -0.2571,-0.18763 -0.359,-0.30765 -0.079,-0.0935 -0.092,-0.23575 -0.1794,-0.32046 -0.2992,-0.28989 -0.4671,-0.212 -0.7307,-0.49996 -0.2834,-0.30942 -0.2543,-0.31951 -0.1666,-0.26918 0.06,0.0486 0.1638,0.1236 -0.3462,-0.28201 -0.089,-0.0789 -0.1999,-0.13442 -0.2692,-0.23074 -0.1,-0.13751 -0.1396,-0.31853 -0.2307,-0.46149 -0.287,-0.44917 -0.7442,-0.64586 -0.9742,-1.12806 -0.3747,-0.66314 -0.9475,-1.16658 -1.2948,-1.83313 -0.2342,-0.67549 -0.7225,-1.16298 -0.9229,-1.85873 -0.1358,-0.48297 -0.4847,-0.88321 -0.6538,-1.346 -0.023,-0.0619 -0.021,-0.0919 -0.038,-0.14099 0.057,0.0279 0.1192,0.0612 0.1666,0.0769 0.4041,0.46341 0.9252,0.7501 1.4101,1.11523 0.8322,0.53987 1.4984,1.25859 2.41,1.6793 0.6679,0.56838 1.6046,0.99126 2.4228,1.34597 0.6891,0.67999 1.6683,0.95545 2.4868,1.43572 0.3515,0.365 0.9395,0.25883 1.346,0.47432 0.1626,0.0862 0.2647,0.25231 0.423,0.34609 0.2392,0.14172 0.5341,0.17327 0.7948,0.26922 0.8938,0.33177 1.6999,0.80806 2.5894,1.1665 0.586,0.18352 0.5244,0.16769 0.4615,0.15383 -0.039,0.007 0,0.0683 0.4102,0.26922 0.155,0.0777 0.3329,0.0884 0.4872,0.16662 0.1717,0.0874 0.2924,0.26897 0.4742,0.33329 1.4071,0.49799 -0.031,-0.36315 0.9743,0.29486 0.5696,0.0242 1.0388,0.29297 1.5511,0.48712 0.1842,0.0692 0.3961,0.0876 0.5768,0.16663 0.1541,0.0667 0.2598,0.22955 0.4231,0.26921 0.2011,0.0485 0.4081,-0.008 0.6152,-0.0127 0.1317,0.0922 0.2458,0.2161 0.3974,0.26923 0.1835,0.0667 0.3836,0.0551 0.5769,0.0769 0.3551,0.0413 0.6947,0.17622 1.0511,0.2051 0.4235,0.034 0.8577,-0.0686 1.2819,-0.10255 0.8898,0.48317 1.8508,0.80445 2.833,1.05115 0.8487,0.46001 1.7596,0.6012 2.7048,0.73066 4.0354,0.67249 5.844,-3.26081 4.4225,-5.84544 -0.068,-1.34896 -0.853,-2.67651 -2.5894,-3.44827 -0.3842,-0.26294 -0.815,-0.49434 -1.1537,-0.82041 -0.1453,-0.2024 -0.3685,-0.29112 -0.6024,-0.38457 -0.075,-0.78603 -0.3946,-1.60776 -1.0512,-2.40996 -0.3905,-0.44667 -0.2147,-0.24695 -0.5384,-0.64094 -0.1638,-0.30409 -0.2228,-0.40434 -0.2564,-0.47432 0.049,0.1338 0.08,0.31138 -0.3589,-0.15383 -0.1306,-0.13832 -0.1694,-0.34655 -0.2821,-0.49992 -0.096,-0.12909 -0.237,-0.21823 -0.3333,-0.34613 -0.317,-0.42084 -0.297,-0.43404 -0.2051,-0.35894 0.056,0.0595 0.1757,0.17381 -0.2948,-0.32044 -0.5436,-0.35709 -0.096,-0.004 -0.5897,-0.58967 -0.3925,-0.4651 -0.9656,-0.78826 -1.2434,-1.35882 -0.071,-0.14159 -0.1015,-0.30363 -0.2051,-0.42304 -0.1068,-0.12257 -0.2824,-0.18189 -0.4102,-0.28201 -0.4257,-0.33359 -0.8079,-0.74683 -1.0896,-1.20499 -0.4,-0.31269 -0.2065,-0.11297 -0.5512,-0.60247 -0.096,-0.0825 -0.2523,-0.0679 -0.3461,-0.15382 -0.1201,-0.1092 -0.1601,-0.29006 -0.2693,-0.41021 -0.2373,-0.26126 -0.2903,-0.25958 -0.2948,-0.21794 0.016,0.0473 0.027,0.0765 -0.2308,-0.43585 -0.2582,-0.33489 -0.2151,-0.27324 -0.1922,-0.23074 -0.014,0.0111 -0.096,-0.0492 -0.4102,-0.35893 -0.435,-0.4292 -0.6694,-1.04762 -1.1793,-1.41008 -0.6507,-0.5646 -1.1504,-1.30999 -1.8973,-1.76901 -0.1667,-0.22742 -0.2793,-0.51411 -0.4743,-0.71786 -0.083,-0.0874 -0.2113,-0.0921 -0.3076,-0.16663 -0.3797,-0.29182 -0.5036,-0.71572 -0.923,-0.96144 -0.4595,-0.55624 -0.1768,-0.22705 -0.1538,-0.16662 -0.019,0 -0.142,-0.10362 -0.4615,-0.43584 -0.2754,-0.28711 -0.438,-0.71975 -0.7178,-0.98708 -0.1253,-0.12015 -0.2901,-0.18858 -0.4359,-0.28202 -0.1421,-0.3241 -0.1974,-0.52876 -0.4999,-0.76914 -0.1129,-0.0897 -0.2863,-0.088 -0.3974,-0.17946 -0.3808,-0.31405 -0.6617,-0.81771 -1.0255,-1.15371 -0.5814,-0.78013 -1.4482,-1.24698 -2.0255,-2.02539 -0.9181,-0.38924 0.1143,0.16183 -0.6922,-0.62811 -0.1043,-0.10194 -0.2807,-0.11871 -0.3973,-0.2051 -0.4655,-0.34449 -0.4736,-0.87042 -1.1024,-0.99987 -0.6608,-0.68558 -1.3263,-1.34277 -2.0254,-1.98696 -0.6248,-0.23628 -0.1824,0.0287 -0.641,-0.56403 -0.2302,-0.29827 -0.5645,-0.42707 -0.8589,-0.62811 -0.1309,-0.0898 -0.2513,-0.21713 -0.3717,-0.3205 -0.4623,-0.61108 -1.0452,-1.05772 -1.5127,-1.65362 -0.691,-0.52917 -1.3039,-1.1713 -1.8074,-1.87157 -0.6136,-0.685 -1.3518,-1.24238 -1.8203,-2.05102 -0.6842,-0.67454 -1.2502,-1.47863 -1.9613,-2.12795 -0.1797,-0.20047 -0.446,-0.32361 -0.5896,-0.55123 -0.09,-0.14234 -0.077,-0.33752 -0.1539,-0.48712 -0.175,-0.33953 -0.565,-0.52703 -0.7691,-0.84605 -0.3421,-0.4134 -0.7788,-0.7823 -1.0897,-1.21778 -0.093,-0.13118 -0.1257,-0.30064 -0.2307,-0.42304 -0.081,-0.0947 -0.2059,-0.14583 -0.3077,-0.21791 -0.035,-0.17896 -0.015,-0.38817 -0.1153,-0.53839 -0.081,-0.11769 -0.2763,-0.0738 -0.3846,-0.16667 -0.5044,-0.43211 -0.7236,-1.18976 -1.2434,-1.61518 -0.1802,-0.25679 -0.3138,-0.54237 -0.5,-0.79478 -0.086,-0.11649 -0.2155,-0.18668 -0.2948,-0.30765 -0.108,-0.16441 -0.139,-0.39134 -0.2692,-0.5384 -0.1153,-0.13056 -0.3235,-0.14783 -0.4487,-0.26917 -0.125,-0.12134 -0.1764,-0.28838 -0.2691,-0.43585 -0.6247,-0.77996 -1.2162,-1.59828 -1.9614,-2.26898 -0.1951,-0.25749 -0.2994,-0.57971 -0.4998,-0.83321 -0.2112,-0.26672 -0.5569,-0.38601 -0.7821,-0.64095 -0.1055,-0.11892 -0.1702,-0.27291 -0.2691,-0.39741 -0.1,-0.12475 -0.2108,-0.24341 -0.3205,-0.35893 -0.033,-0.057 -0.3778,-0.65723 -0.4743,-0.7435 -0.1324,-0.11772 -0.3284,-0.17745 -0.4615,-0.29481 -0.248,-0.21839 -0.6542,-0.73755 -0.8076,-1.03836 -1.1252,-1.5749 0.4135,0.49955 -0.6666,-0.70501 -0.1262,-0.14087 -0.1863,-0.32907 -0.3076,-0.47433 -0.3011,-0.36028 -0.7132,-0.62851 -0.9486,-1.05115 -0.4332,-0.79358 -1.4197,-1.11203 -1.7562,-1.99976 -0.1356,-0.14073 -0.2616,-0.28222 -0.3974,-0.423 -0.1325,-0.11043 -0.2886,-0.21101 -0.4102,-0.33329 -0.3929,-0.39622 -0.6428,-0.89117 -1.1025,-1.20498 -0.012,-0.0546 -0.014,-0.058 -0.026,-0.14103 -0.5261,-0.89465 -1.2504,-1.47711 -1.7049,-2.43559 -0.4693,-0.17804 -0.593,-0.65555 -0.9229,-0.98704 -0.1068,-0.10683 -0.2433,-0.17377 -0.3333,-0.29486 -0.098,-0.13274 -0.1465,-0.28661 -0.2179,-0.43584 l -0.3718,-0.47428 c -0.1448,-0.074 -0.3362,-0.0897 -0.4358,-0.21794 -0.1252,-0.16199 -0.081,-0.40517 -0.1923,-0.57684 -0.081,-0.12405 -0.2555,-0.16339 -0.359,-0.26921 -0.4923,-0.50428 -0.4135,-0.6782 -1.0639,-1.06396 -0.1177,-0.0765 -0.2705,-0.10912 -0.3589,-0.21794 -0.1153,-0.14197 -0.1309,-0.34642 -0.2308,-0.49992 -0.102,-0.15666 -0.5494,-0.54057 -0.6409,-0.65379 -0.2243,-0.27737 -0.2291,-0.34149 -0.2051,-0.34609 0.03,0.0177 0.03,0.032 -0.4103,-0.30765 -0.2608,-0.16211 -0.3624,-0.22881 -0.4101,-0.25637 0.064,0.0135 0.1473,-0.0234 -0.3333,-0.51277 -0.6793,-0.69225 -0.098,0.35512 -0.782,-0.56402 -0.5385,-0.72337 0.3404,-0.15593 -0.6409,-0.65379 -0.1943,-0.53438 -0.7584,-0.61683 -1.1409,-0.94861 -0.403,-0.34933 -0.6375,-0.63913 -1.1024,-0.92296 -0.5479,-0.79055 -1.3825,-1.27578 -2.1793,-1.78181 -0.3789,-0.65485 -1.0285,-0.86004 -1.6408,-1.20498 -0.053,-0.0304 -0.1666,-0.14046 -0.282,-0.24358 -0.1202,-0.14866 -0.2488,-0.28112 -0.4102,-0.37173 -0.012,-0.0123 -0.018,-0.0127 -0.026,-0.0127 -0.7526,-0.72733 -1.6294,-1.31754 -2.3587,-2.07666 -0.4836,-0.44823 -1.0471,-0.81008 -1.5639,-1.21778 -0.1081,-0.0862 -0.2622,-0.12068 -0.3462,-0.23074 -0.1128,-0.14669 -0.1443,-0.33042 -0.2178,-0.49996 -0.16,-0.0461 -0.3415,-0.0599 -0.4872,-0.14099 -0.4821,-0.26791 -1.2289,-1.25797 -1.7946,-1.53827 -0.8287,-0.63606 -1.6456,-1.28509 -2.5254,-1.84592 -0.1297,-0.10559 -0.6738,-0.5551 -0.7819,-0.62815 -0.4598,-0.31004 -0.2987,-0.066 -0.7564,-0.46149 -0.1539,-0.13299 -0.2595,-0.31475 -0.4229,-0.43584 -0.1335,-0.0983 -0.3114,-0.14714 -0.4615,-0.2179 -0.7786,-0.68148 -1.7879,-1.03147 -2.6023,-1.6793 -0.2485,-0.15547 -0.467,-0.36106 -0.7179,-0.51276 -0.083,-0.051 -0.5461,-0.20564 -0.6537,-0.29481 -0.1,-0.0825 -0.153,-0.23025 -0.2564,-0.30766 -0.1289,-0.0971 -0.291,-0.13434 -0.4358,-0.2051 -0.5442,-0.2076 -0.081,0.0193 -0.5384,-0.42305 -0.4187,-0.40602 -1.0068,-0.58708 -1.3332,-1.08959 -0.4387,-0.31853 -0.8813,-0.69095 -1.346,-0.96143 -0.1165,-0.068 -0.2822,-0.0526 -0.3846,-0.141 -0.139,-0.1201 -0.217,-0.3097 -0.3204,-0.46147 -0.6213,-0.26274 -0.9666,-0.72948 -1.5126,-1.08964 -0.1166,-0.0765 -0.2734,-0.07 -0.3846,-0.15383 -0.1489,-0.11284 -0.2577,-0.28599 -0.3846,-0.42299 -0.2604,-0.0498 -0.3769,-0.0568 -0.423,-0.0641 0.056,-0.0193 0.1944,-0.10956 -0.3333,-0.49992 -0.1153,-0.085 -0.2869,-0.0188 -0.423,-0.0641 -0.4324,-0.14005 -0.7602,-0.40348 -1.0512,-0.7435 -0.2568,-0.23624 -0.3864,-0.34576 -0.4358,-0.39737 0.051,0.0752 0.093,0.21987 -0.4488,0 -0.1589,-0.0643 -0.2586,-0.23233 -0.3973,-0.33329 -0.5213,-0.37895 -0.058,0.005 -0.6794,-0.33329 -0.1496,-0.0825 -0.2827,-0.19731 -0.423,-0.29486 -0.4228,-0.16515 -0.7143,-0.47218 -1.1153,-0.65374 -0.1248,-0.0558 -0.2908,0.0107 -0.3973,-0.0769 -0.6859,-0.55161 -0.4272,-0.50648 -0.218,-0.43585 -0.091,-0.0377 -0.2001,-0.0872 -0.564,-0.25637 -0.552,-0.30528 -1.0569,-0.80487 -1.6409,-1.03836 -0.1445,-0.0583 -0.3253,-0.0271 -0.4615,-0.10255 -0.1662,-0.0922 -0.2688,-0.25778 -0.4101,-0.38457 -0.8744,-0.27484 -1.4641,-1.02773 -2.3588,-1.30753 -0.7902,-0.53281 -1.5925,-1.00263 -2.4483,-1.43572 -0.8119,-0.55624 0.1178,0.0495 -0.923,-0.44864 -0.3009,-0.14415 -0.513,-0.42129 -0.8204,-0.55124 -0.5395,-0.22799 -0.475,-0.1099 -0.4102,-0.0385 -0.049,-0.0413 -0.1473,-0.13987 -0.3974,-0.33329 -0.9824,-0.35483 -1.9274,-0.8531 -2.9227,-1.12806 -0.9041,-0.17376 0.026,0.0471 -0.8588,-0.37177 -0.6017,-0.2853 -1.295,-0.26791 -1.8332,-0.67939 -0.1786,-0.0571 -0.3491,-0.13175 -0.5256,-0.19229 -0.2575,-0.22365 -0.5209,-0.45739 -0.7819,-0.66659 -0.7824,-0.55854 -1.4555,-1.26114 -2.2818,-1.78182 -0.7798,-0.72889 -1.6901,-1.27024 -2.5381,-1.92284 -0.7939,-0.79103 -1.9569,-1.03699 -2.7048,-1.87156 -0.3248,-0.26635 -0.7613,-0.32123 -1.1153,-0.5256 -0.1343,-0.0777 -0.2099,-0.20752 -0.3461,-0.28201 -0.1586,-0.0874 -0.3536,-0.10637 -0.5127,-0.19226 -0.5113,-0.27534 -0.5281,-0.33486 -0.4872,-0.34614 -0.07,-0.0193 -0.2209,-0.0733 -0.564,-0.17946 -0.3598,-0.0595 -0.4657,-0.48589 -0.7564,-0.62811 -0.1752,-0.0862 -0.3927,-0.0139 -0.5768,-0.0769 -0.5144,-0.17922 -0.8134,-0.47325 -1.3588,-0.60251 -0.9784,-0.30032 -1.8034,-0.96 -2.7817,-1.23062 -1.7539,-0.96189 0.4711,0.17397 -0.9229,-0.30765 -0.1523,-0.0521 -0.2684,-0.21101 -0.4231,-0.25638 -0.1728,-0.051 -0.3732,0.0332 -0.5384,-0.0385 -0.6983,-0.30445 -0.5037,-0.37845 -0.4486,-0.39741 -0.034,0 -0.1349,0.0123 -0.3846,0 -0.082,-0.0168 -0.074,-0.0147 -0.1282,-0.0254 -0.2656,-0.1375 -0.4716,-0.16921 -0.8845,-0.39736 -0.1641,-0.091 -0.2891,-0.24695 -0.4615,-0.32049 -0.1277,-0.0546 -0.2853,-0.032 -0.423,-0.0513 l -0.3974,-0.2179 c -0.8711,-0.32119 -1.8279,-0.55858 -2.5766,-1.10242 -0.7553,-0.31902 -1.4979,-0.64518 -2.2562,-0.93581 -0.055,-0.0328 -0.1107,-0.0582 -0.1666,-0.0897 -0.091,-0.0752 -0.1676,-0.15826 -0.1923,-0.17946 0.019,0.0242 0.019,0.0513 -0.013,0.0513 -0.042,-0.0353 -0.1509,-0.11392 -0.423,-0.25638 -0.046,-0.0242 -0.09,-0.0382 -0.141,-0.0513 -0.036,-0.0473 -0.078,-0.0872 -0.1282,-0.1154 -0.1,-0.0558 -0.2009,-0.10521 -0.3205,-0.14098 -0.03,-0.0583 -0.062,-0.12011 -0.1153,-0.15383 -0.1227,-0.0789 -0.2825,-0.0778 -0.4231,-0.11539 -0.147,-0.10317 -0.2886,-0.20453 -0.4358,-0.30765 -0.4984,-0.42981 -0.2117,-0.20244 -0.4102,-0.26918 -0.362,-0.26553 -0.722,-0.52035 -1.1153,-0.7435 -0.3863,-0.26549 -0.7743,-0.46296 -1.1537,-0.60251 -0.044,-0.0436 -0.082,-0.10341 -0.1538,-0.16662 -0.079,-0.0692 -0.2113,-0.0773 -0.2948,-0.14103 -0.3114,-0.23846 -0.6248,-0.50169 -0.9615,-0.73066 -0.7113,-0.60428 -1.5756,-0.98959 -2.333,-1.53827 -0.6258,-0.29826 -1.1781,-0.68206 -1.7818,-0.99988 -0.033,-0.051 -0.071,-0.085 -0.1154,-0.12819 -0.1068,-0.10678 -0.2702,-0.14529 -0.3845,-0.24358 -0.5511,-0.47354 -0.6083,-0.55608 -0.5384,-0.52556 0.084,0.0584 0.2425,0.17438 -0.2949,-0.21794 -0.7568,-0.58671 -1.474,-1.1944 -2.2048,-1.82029 l -0.4358,-0.32045 c -0.1009,-0.0971 -0.195,-0.21212 -0.3077,-0.29485 -0.3681,-0.27012 -0.4575,-0.20671 -0.7692,-0.48712 -0.1201,-0.10802 -0.202,-0.2522 -0.3333,-0.3461 -0.1201,-0.0862 -0.2745,-0.12195 -0.4102,-0.17946 -0.2872,-0.18382 -0.5201,-0.45394 -0.8204,-0.61531 -0.1805,-0.097 -0.3989,-0.0906 -0.5769,-0.1923 -0.1456,-0.0837 -0.2205,-0.25121 -0.3589,-0.34609 -0.1213,-0.0825 -0.2756,-0.12077 -0.4101,-0.17947 l -0.4616,-0.34614 c -1.249,-0.4218 0.5092,0.22049 -0.8844,-0.52555 -0.1387,-0.074 -0.323,-0.0402 -0.4615,-0.11539 -0.1775,-0.0958 -0.2835,-0.27754 -0.4615,-0.37173 -0.3039,-0.16076 -0.7363,-0.0502 -0.9999,-0.33329 -0.8991,-0.52617 -1.9641,-0.64735 -2.9227,-1.05115 -1.0812,-0.45127 -2.3018,-0.57393 -3.4483,-0.7307 -0.218,-0.0498 -0.4356,-0.1042 -0.6538,-0.15383 -0.1894,-0.0168 -0.3782,-0.014 -0.564,-0.0513 -0.2058,-0.0461 -0.3813,-0.17126 -0.5896,-0.2051 -0.2487,-0.0402 -0.4055,-0.0537 -0.5,-0.0513 -0.095,-0.0534 -0.1877,-0.11432 -0.2821,-0.16663 -0.1409,-0.0254 -0.2814,-0.0139 -0.4101,-0.0769 -0.1528,-0.074 -0.2544,-0.24079 -0.4103,-0.30765 -0.1671,-0.0716 -0.3598,-0.0557 -0.5384,-0.0897 -0.5958,-0.11404 -0.5128,-0.10551 -1.0767,-0.3333 -1.041,-0.61411 -2.2239,-0.5164 -3.3457,-0.79477 -0.2108,-0.0837 -0.4053,-0.21573 -0.6282,-0.25637 -0.2037,-0.0377 -0.4211,0.0271 -0.6282,0.0254 -0.727,-0.0123 -1.4643,-0.071 -2.192,-0.10255 -0.5407,-0.0692 -1.0957,-0.0982 -1.6536,-0.0898 l 0,-0.0127 z"
       id="path3898"
       inkscape:connector-curvature="0" />
    <path
       style="fill:#ffffff"
       d="m 1450.7141,911.68608 c 0.1236,0.0995 0.1317,0.20104 0.087,0.30068 -0.064,-0.11527 -0.1699,-0.21466 -0.087,-0.30068 z"
       id="path3894"
       inkscape:connector-curvature="0" />
    <path
       style="fill:#ffffff"
       d="m 1488.0801,954.28642 c 0.06,0 0.084,0.0205 -0.063,0.12519 -0.048,0.034 -0.096,-0.0243 -0.1379,-0.0874 0.049,-0.0124 0.1426,-0.0353 0.2005,-0.0377 z"
       id="path3892"
       inkscape:connector-curvature="0" />
    <path
       style="fill:#ffffff"
       d="m 1468.558,958.39372 c 0,0.0124 0.013,0.0124 0.013,0.0124 0.012,0.0193 0.012,0.0971 0,0.0752 -0.013,-0.0279 -0.014,-0.0595 -0.013,-0.0874 z"
       id="path3890"
       inkscape:connector-curvature="0" />
    <path
       style="fill:#ffffff"
       d="m 1484.3109,958.94475 c 0.039,0.0155 0.078,0.0304 0.1253,0.0377 -0.016,0.0777 0.018,0.18636 -0.051,0.22533 -0.055,0.0304 -0.041,-0.11527 -0.051,-0.17524 0,-0.023 -0.019,-0.0631 -0.024,-0.0874 z"
       id="path3888"
       inkscape:connector-curvature="0" />
    <path
       style="fill:#ffffff"
       d="m 1399.7114,989.77425 c 0.088,0.55168 0.1743,1.10894 0.3007,1.65293 0.048,0.23174 0.1713,0.45295 0.15,0.68854 -0.015,0.16157 -0.144,0.3138 -0.15,0.47592 -0.015,0.39166 0.3077,0.77372 0.075,1.17718 -0.018,0.58681 -0.068,1.15614 -0.1129,1.72794 -0.1273,-0.77966 -0.2771,-1.53225 -0.3005,-2.31658 -0.1589,-1.20444 0.042,0.62304 0.063,-0.90161 0,-0.17484 -0.083,-0.35187 -0.1007,-0.52588 -0.048,-0.49587 0.048,-0.99375 0.024,-1.49016 0.026,-0.1623 0.035,-0.3268 0.051,-0.48828 z"
       id="path3078"
       inkscape:connector-curvature="0" />
  </g>
</svg>
